<?xml version="1.0" encoding="utf-8"?><svg viewBox="0 0 60 60" xmlns="http://www.w3.org/2000/svg" xmlns:xlink="http://www.w3.org/1999/xlink"><style>:root>svg{display:none}:root>svg:target{display:block}</style><svg viewBox="0 0 15 9" id="arrow-down" xmlns="http://www.w3.org/2000/svg"><path d="M12.855 0L7.5 5.563 2.145 0 .5 1.713 7.5 9l7-7.287L12.855 0z"/></svg><svg viewBox="0 0 14 14" id="arrow-right" xmlns="http://www.w3.org/2000/svg"><path clip-rule="evenodd" d="M1.93 7c0-.174.068-.34.186-.463a.623.623 0 01.448-.192h7.34l-2.72-2.812a.667.667 0 010-.927.624.624 0 01.449-.192c.168 0 .33.069.448.192l3.802 3.93a.658.658 0 01.186.464.675.675 0 01-.186.464l-3.802 3.93a.624.624 0 01-.448.192.624.624 0 01-.449-.192.667.667 0 010-.928l2.72-2.811h-7.34a.623.623 0 01-.448-.192A.667.667 0 011.931 7z"/></svg><svg viewBox="0 0 42 42" id="arrow-right-big" xmlns="http://www.w3.org/2000/svg"><path clip-rule="evenodd" d="M8 20.5c0-.436.171-.853.476-1.162a1.616 1.616 0 011.149-.48H28.45l-6.977-7.05a1.654 1.654 0 010-2.326 1.618 1.618 0 012.3 0l9.75 9.855A1.641 1.641 0 0134 20.5a1.658 1.658 0 01-.477 1.163l-9.75 9.855a1.618 1.618 0 01-2.3 0 1.654 1.654 0 010-2.326l6.977-7.05H9.625c-.431 0-.844-.172-1.15-.48A1.652 1.652 0 018 20.5z"/></svg><svg viewBox="0 0 9 14" id="arrow-shevron-left" xmlns="http://www.w3.org/2000/svg"><path opacity=".5" d="M9 12.355L3.437 7 9 1.645 7.287 0 0 7l7.287 7L9 12.355z"/></svg><svg viewBox="0 0 15 14" id="burger-icon" xmlns="http://www.w3.org/2000/svg"><path d="M.5 2h14V0H.5zM.5 8h14V6H.5zM.5 14h14v-2H.5z"/></svg><svg viewBox="0 0 15 15" id="chat" xmlns="http://www.w3.org/2000/svg"><g clip-path="url(#fclip0_449_594)" clip-rule="evenodd"><path d="M12.926 1.37H2.259a.889.889 0 00-.889.89v10.298l1.778-1.778c.333-.333.786-.52 1.257-.52h8.52a.889.889 0 00.89-.89V2.26a.889.889 0 00-.89-.89zM2.259.481A1.778 1.778 0 00.481 2.26v11.372a.444.444 0 00.76.314l2.536-2.536a.89.89 0 01.628-.26h8.52a1.778 1.778 0 001.779-1.779V2.26A1.778 1.778 0 0012.926.48H2.259z"/><path d="M3.148 3.593a.444.444 0 01.445-.445h8a.445.445 0 010 .889h-8a.444.444 0 01-.445-.444zm0 2.222a.444.444 0 01.445-.445h8a.445.445 0 010 .89h-8a.444.444 0 01-.445-.445zm0 2.222a.444.444 0 01.445-.444h4.444a.444.444 0 110 .888H3.593a.444.444 0 01-.445-.444z"/></g><defs><clipPath id="fclip0_449_594"><path transform="translate(.481 .481)" d="M0 0h14.222v14.222H0z"/></clipPath></defs></svg><svg viewBox="0 0 60 60" id="confirm" xmlns="http://www.w3.org/2000/svg"><path d="M27.485 7.57a1.679 1.679 0 00-2.373-.092l-5.67 5.247-1.854-1.854a1.679 1.679 0 10-2.374 2.375l2.996 2.995c.014.015.03.027.044.04a1.554 1.554 0 00.133.112l.067.05.077.048.067.04c.028.015.057.028.086.041.022.01.043.022.066.03.03.014.062.025.093.035l.063.023c.034.01.069.018.103.026l.058.014c.04.008.078.013.117.018l.047.007a1.686 1.686 0 00.323 0l.046-.006c.037-.004.073-.009.11-.016.02-.003.038-.009.057-.013.032-.007.065-.014.097-.024l.063-.02.087-.03.065-.03c.027-.012.054-.023.08-.037.023-.011.045-.024.067-.037.024-.014.05-.028.073-.043l.066-.045.068-.05.062-.052.042-.036 6.856-6.344c.68-.63.721-1.692.092-2.372z"/><path d="M52.852 31.758h-8.79v-7.275c5.956-.855 10.547-5.99 10.547-12.178C54.61 5.52 49.09 0 42.305 0H14.18C7.395 0 1.875 5.52 1.875 12.305s5.52 12.304 12.305 12.304h19.336v7.149h-1.758a5.28 5.28 0 00-5.274 5.273v4.119c0 6.857 2.75 13.54 7.547 18.335.33.33.776.515 1.242.515h14.063c.466 0 .913-.185 1.243-.515 4.795-4.796 7.546-11.478 7.546-18.335v-4.119a5.28 5.28 0 00-5.273-5.273zM14.18 21.094c-4.847 0-8.79-3.943-8.79-8.79 0-4.846 3.943-8.788 8.79-8.788h28.125c4.846 0 8.789 3.942 8.789 8.789 0 4.244-3.025 7.795-7.032 8.612v-1.581a5.28 5.28 0 00-5.273-5.273 5.28 5.28 0 00-5.273 5.273v1.758H14.18zM54.61 41.15c0 5.69-2.186 11.236-6.019 15.334H36.018C32.185 52.386 30 46.84 30 41.15v-4.119c0-.969.789-1.758 1.758-1.758h1.758v5.274a1.758 1.758 0 003.515 0V19.336c0-.97.789-1.758 1.758-1.758.97 0 1.758.789 1.758 1.758v14.18c0 .97.787 1.757 1.758 1.757h10.547c.969 0 1.757.789 1.757 1.758v4.119z"/></svg><svg viewBox="0 0 60 60" id="doc" xmlns="http://www.w3.org/2000/svg"><path clip-rule="evenodd" d="M20.625 31.875c0-1.035.84-1.875 1.875-1.875h15a1.875 1.875 0 010 3.75h-15a1.875 1.875 0 01-1.875-1.875zM20.625 39.375c0-1.035.84-1.875 1.875-1.875h15a1.875 1.875 0 010 3.75h-15a1.875 1.875 0 01-1.875-1.875z"/><path clip-rule="evenodd" d="M10.472 6.723a3.75 3.75 0 012.651-1.098h22.502c.497 0 .974.198 1.326.55l13.125 13.124c.352.352.549.829.549 1.326v30a3.751 3.751 0 01-3.75 3.75H13.123a3.75 3.75 0 01-3.75-3.75V9.375a3.75 3.75 0 011.099-2.652zm24.376 2.652H13.123v41.25h33.752V21.402L34.848 9.375z"/><path clip-rule="evenodd" d="M35.625 5.625c1.035 0 1.875.84 1.875 1.875v11.25h11.252a1.875 1.875 0 010 3.75H35.625a1.875 1.875 0 01-1.875-1.875V7.5c0-1.036.84-1.875 1.875-1.875z"/></svg><svg viewBox="0 0 60 60" id="face-id" xmlns="http://www.w3.org/2000/svg"><path clip-rule="evenodd" d="M12.347 8.48a3.867 3.867 0 00-3.867 3.866v5.885a2.018 2.018 0 01-4.036 0v-5.885a7.902 7.902 0 017.903-7.902h5.884a2.017 2.017 0 110 4.035h-5.885zM6.462 39.751c1.114 0 2.018.904 2.018 2.018v5.884a3.867 3.867 0 003.867 3.867h5.884a2.017 2.017 0 110 4.035h-5.885a7.902 7.902 0 01-7.902-7.902V41.77c0-1.114.904-2.018 2.018-2.018zM39.752 6.462c0-1.114.903-2.018 2.017-2.018h5.885a7.902 7.902 0 017.902 7.902v5.885a2.018 2.018 0 01-4.035 0v-5.885a3.867 3.867 0 00-3.867-3.867h-5.885a2.018 2.018 0 01-2.017-2.017zM53.538 39.751c1.114 0 2.018.904 2.018 2.018v5.884a7.902 7.902 0 01-7.902 7.903h-5.885a2.018 2.018 0 010-4.036h5.885a3.867 3.867 0 003.866-3.867V41.77c0-1.114.904-2.018 2.018-2.018zM19.156 24.115c0-1.114.903-2.017 2.017-2.017h.028a2.018 2.018 0 010 4.035h-.028a2.018 2.018 0 01-2.017-2.018zM36.81 24.115c0-1.114.902-2.017 2.017-2.017h.028a2.018 2.018 0 010 4.035h-.028a2.018 2.018 0 01-2.018-2.018zM21.232 37.386a2.017 2.017 0 012.854.029 8.282 8.282 0 0011.828 0 2.017 2.017 0 112.883 2.824 12.313 12.313 0 01-17.594 0 2.017 2.017 0 01.03-2.853z"/></svg><svg viewBox="0 0 56 60" id="gos-logo" xmlns="http://www.w3.org/2000/svg"><path d="M23.528 30.23h-5.175c-.053 0-.079.026-.105.077-.132 2.28-.581 4.712-1.215 6.71 0 .025 0 .05.026.076.027.026.053.026.08.026h1.769c.052 0 .079-.026.079-.051.501-1.537.897-3.534 1.056-5.224h1.69v5.198c0 .051.052.103.105.103h1.69c.053 0 .105-.052.105-.103v-6.735c0-.051-.052-.077-.105-.077zm21.886 0h-1.69c-.053 0-.105.052-.105.103v5.198c-.37.103-.74.154-1.162.154-1.109 0-1.373-.333-1.373-1.767v-3.585c0-.051-.053-.103-.106-.103h-1.663c-.053 0-.105.052-.105.103v3.764c0 2.356.818 3.253 2.904 3.253 1.188 0 2.534-.308 3.326-.59.027-.025.053-.05.053-.076v-6.351c.026-.077-.026-.103-.08-.103zm-35.8 0H7.9c-.053 0-.08.026-.08.077-.264 1.024-.818 2.766-1.557 4.584l-1.716-4.584c-.027-.025-.053-.051-.08-.051H2.724c-.026 0-.053.026-.08.051-.026.026-.026.051 0 .077l2.588 6.863a22.04 22.04 0 01-.74 1.383c-.184.307-.342.615-.5.922-.027.026-.027.051 0 .077.026.025.052.051.078.051h1.875c.026 0 .08-.026.08-.051.316-.59.712-1.409 1.081-2.254a63.664 63.664 0 002.64-7.017c0-.025 0-.05-.026-.076-.053-.052-.079-.052-.105-.052zm6.152 5.301c0-.025-.027-.05-.053-.05h-.08c-.421.153-1.187.255-1.715.255-1.188 0-1.743-.307-1.743-2.048 0-1.409.185-2.05 1.743-2.05.449 0 .845.052 1.373.206.053 0 .079 0 .105-.052.185-.358.423-.794.687-1.331v-.077c0-.026-.027-.051-.053-.051A8.191 8.191 0 0013.786 30c-2.455 0-3.564 1.127-3.564 3.662 0 2.56 1.109 3.713 3.564 3.713.607 0 1.848-.128 2.429-.358.052-.026.079-.077.052-.128l-.501-1.358zm16.078-5.3h-1.716c-.053 0-.08.025-.08.076-.263 1.05-.818 2.766-1.557 4.584l-1.716-4.584c-.026-.025-.053-.051-.08-.051h-1.742c-.026 0-.052.026-.079.051-.026.026-.026.051 0 .077l2.587 6.863c-.264.538-.501.973-.739 1.383-.185.307-.343.615-.502.948-.026.025-.026.05 0 .076.027.026.053.052.08.052h1.874c.027 0 .08-.026.08-.052.316-.589.712-1.408 1.082-2.253 1.082-2.51 1.98-4.866 2.64-7.017 0-.026 0-.051-.026-.077-.053-.077-.08-.077-.106-.077zm6.336 0h-4.99c-.052 0-.105.05-.105.102v6.735c0 .051.053.102.105.102h1.69c.053 0 .105-.05.105-.102v-5.199H37.6c.027 0 .08-.025.08-.051.21-.461.395-.948.607-1.434v-.077c-.053-.077-.08-.077-.106-.077zM11.431 20.343c-2.375 0-3.305.98-3.305 3.456 0 2.524.93 3.505 3.305 3.505 2.402 0 3.332-.98 3.332-3.505 0-2.5-.93-3.456-3.332-3.456zm0 5.515c-1.084 0-1.42-.27-1.42-2.035 0-1.862.362-2.034 1.42-2.034 1.085 0 1.447.172 1.447 2.034 0 1.765-.336 2.035-1.447 2.035zm9.943-.27c0-.024-.026-.049-.051-.049h-.078c-.413.147-1.162.245-1.679.245-1.162 0-1.704-.294-1.704-1.96 0-1.349.18-1.961 1.704-1.961.44 0 .827.049 1.343.196.052 0 .078 0 .104-.05.18-.343.413-.76.671-1.274v-.073c0-.025-.026-.05-.052-.05a8.177 8.177 0 00-2.195-.318c-2.402 0-3.486 1.078-3.486 3.505 0 2.45 1.084 3.554 3.486 3.554.594 0 1.808-.123 2.376-.343.052-.025.078-.074.052-.123l-.49-1.299zM7.61 20.515H2.73c-.052 0-.104.049-.104.098v6.446c0 .049.052.098.103.098h1.653c.052 0 .103-.05.103-.098v-5h2.531c.026 0 .078-.025.078-.05.206-.44.387-.906.594-1.372v-.073c-.026-.025-.052-.05-.078-.05z"/><path d="M53.112 36.751v-.103c0-.052 0-.13.026-.181.08-.955.132-2.117.184-3.46v-.103c.027-.903.053-1.884.053-2.891a98.89 98.89 0 00-.053-2.892v-.103c-.052-1.317-.105-2.504-.184-3.46 0-.051 0-.128-.026-.18v-.103c0-.104-.026-.181-.026-.284v-.104c-.08-1.006-.132-1.626-.158-1.678 0-.103-.026-.206-.026-.284v-.077a3.596 3.596 0 00-.105-.517c0-.025 0-.051-.027-.077-.447-2.091-1.63-4.389-3.102-6.119-.578-.67-1.183-1.265-1.814-1.73-.053-.05-.789-.567-1.945-1.368-1.341-.903-3.26-2.168-5.442-3.407-3.891-2.246-7.335-3.821-7.809-4.002-.026 0-.026-.026-.026-.026-1.025-.439-2.26-.748-3.602-.878-.263-.025-.526-.051-.788-.051-.263-.026-.5-.026-.736-.026h-.369c-1.787.052-3.444.361-4.758.955-.184.078-3.68 1.652-7.65 3.95l-.158.078c-4.075 2.349-7.256 4.673-7.388 4.776-.999.723-1.893 1.652-2.708 2.84-.184.258-.184.929.605.929h2.024c.868 0 1.078-.516 2.051-1.213 1.078-.775 3.207-2.324 7.098-4.596a88.41 88.41 0 016.73-3.51c.027 0 .053-.027.08-.027 0 0 .026 0 .026-.026 0 0 .026 0 .026-.025.026 0 .053-.026.053-.026.026 0 .052-.026.079-.026.315-.155.525-.232.525-.232.894-.388 2.156-.646 3.497-.672h.526c.394 0 .788.026 1.156.078.816.103 1.552.258 2.156.516.053.026.132.052.184.078 0 0 .027.026.105.051.605.258 3.865 1.782 7.414 3.821a85.052 85.052 0 017.099 4.596c.5.361.999.877 1.472 1.445 1.183 1.498 2.156 3.537 2.313 5.112 0 .026.08.646.158 1.704 0 .077 0 .13.026.207v.154c0 .104.027.181.027.284v.104c0 .051 0 .129.026.18 0 .13.026.259.026.388 0 .077 0 .155.027.232v.052c0 .103 0 .18.026.284v.206c.079 1.343.131 2.943.131 4.621 0 1.678-.052 3.28-.131 4.622v.206c0 .103 0 .18-.026.284v.052c0 .077 0 .155-.027.232 0 .13-.026.258-.026.387 0 .078 0 .13-.026.181v.103c0 .104-.027.181-.027.284v.155c0 .078 0 .155-.026.207a40.314 40.314 0 01-.158 1.704c-.157 1.575-1.13 3.614-2.313 5.111-.473.594-.973 1.085-1.472 1.446-.027 0-.71.517-1.84 1.291a93.887 93.887 0 01-5.259 3.304 85.324 85.324 0 01-7.414 3.821l-.105.052c-.052.026-.131.052-.184.078a9.385 9.385 0 01-2.155.516 8.424 8.424 0 01-1.157.077h-.526c-1.34-.026-2.603-.258-3.497-.67 0 0-.184-.078-.525-.233-.027-.026-.08-.026-.106-.052-.026-.026-.052-.026-.078-.052-.027 0-.027-.025-.053-.025s-.053-.026-.079-.026c-.026-.026-.053-.026-.105-.052H22.8c-1.341-.516-3.865-1.755-6.547-3.304-3.917-2.246-6.02-3.821-7.098-4.596-.973-.697-1.183-1.213-2.05-1.213H5.08c-.789 0-.789.671-.605.93.815 1.187 1.71 2.116 2.708 2.84.132.102 3.34 2.426 7.388 4.775.21.13.42.258.657.362 3.76 2.117 6.993 3.562 7.177 3.666 1.288.568 2.971.903 4.759.955h.368c.236 0 .473 0 .71-.026.262 0 .525-.026.788-.052 1.341-.129 2.603-.438 3.602-.877 0 0 .026 0 .026-.026.447-.207 3.918-1.782 7.782-4.002a96.989 96.989 0 005.442-3.408c1.157-.8 1.893-1.316 1.946-1.368.63-.465 1.235-1.058 1.814-1.73 1.472-1.73 2.655-4.027 3.102-6.118 0-.026 0-.052.026-.078.027-.18.08-.361.105-.516v-.078c.027-.103.027-.206.027-.283 0-.052.079-.672.157-1.678v-.104c.053-.077.053-.155.053-.258z"/></svg><svg viewBox="0 0 16 16.003" id="inst" xmlns="http://www.w3.org/2000/svg"><g><path d="M15.96 4.7a5.848 5.848 0 00-.372-1.941A4.1 4.1 0 0013.246.422 5.863 5.863 0 0011.305.05C10.451.009 10.176 0 8.003 0s-2.445.009-3.3.047a5.849 5.849 0 00-1.939.372 3.9 3.9 0 00-1.419.925A3.94 3.94 0 00.422 2.76 5.863 5.863 0 00.051 4.7C.01 5.558 0 5.83 0 8s.01 2.448.051 3.3a5.847 5.847 0 00.372 1.941 4.1 4.1 0 002.338 2.343 5.863 5.863 0 001.941.372C5.551 15.994 5.828 16 8 16s2.445-.009 3.3-.047a5.846 5.846 0 001.941-.372 4.093 4.093 0 002.342-2.341 5.867 5.867 0 00.368-1.94c.037-.853.047-1.125.047-3.3s-.001-2.442-.038-3.3zm-1.441 6.534a4.386 4.386 0 01-.275 1.485 2.655 2.655 0 01-1.519 1.519 4.4 4.4 0 01-1.485.275c-.844.038-1.1.047-3.232.047s-2.392-.009-3.233-.047a4.384 4.384 0 01-1.485-.275 2.463 2.463 0 01-.919-.6 2.488 2.488 0 01-.6-.919 4.4 4.4 0 01-.275-1.485c-.038-.844-.047-1.1-.047-3.233s.009-2.392.047-3.232a4.384 4.384 0 01.275-1.485 2.432 2.432 0 01.6-.919 2.484 2.484 0 01.919-.6A4.4 4.4 0 014.777 1.5c.844-.037 1.1-.047 3.232-.047s2.392.009 3.233.047a4.386 4.386 0 011.485.275 2.461 2.461 0 01.919.6 2.487 2.487 0 01.6.919 4.4 4.4 0 01.275 1.485c.037.844.047 1.1.047 3.232s-.017 2.384-.05 3.228zm0 0"/><path d="M8.003 3.892a4.111 4.111 0 104.111 4.111 4.112 4.112 0 00-4.111-4.111zm0 6.778a2.667 2.667 0 112.667-2.667 2.667 2.667 0 01-2.667 2.667zm0 0"/><path d="M13.237 3.729a.96.96 0 11-.96-.96.96.96 0 01.96.96zm0 0"/></g></svg><svg viewBox="0 0 26 25" id="marker" xmlns="http://www.w3.org/2000/svg"><path d="M11 2.563c-4.303 0-7.813 3.51-7.813 7.812 0 1.209.495 2.533 1.178 3.93.684 1.404 1.574 2.869 2.473 4.207 1.781 2.677 3.558 4.857 3.558 4.857l.604.744.604-.744s1.777-2.18 3.564-4.857c.893-1.338 1.783-2.803 2.467-4.207.683-1.397 1.177-2.721 1.177-3.93 0-4.303-3.51-7.813-7.812-7.813zm0 1.562c3.46 0 6.25 2.79 6.25 6.25 0 .732-.385 1.947-1.02 3.246-.634 1.307-1.502 2.723-2.36 4.03-1.436 2.148-2.413 3.331-2.87 3.906-.457-.575-1.434-1.758-2.87-3.907-.859-1.306-1.726-2.722-2.36-4.029-.635-1.299-1.02-2.514-1.02-3.246 0-3.46 2.79-6.25 6.25-6.25zm0 4.688c-.861 0-1.563.7-1.563 1.562 0 .861.702 1.563 1.563 1.563s1.563-.702 1.563-1.563S11.86 8.812 11 8.812z"/></svg><svg viewBox="0 0 60 60" id="monitor" xmlns="http://www.w3.org/2000/svg"><path d="M51.234 4.688H8.72c-3.832 0-6.961 3.117-6.961 6.96v26.965c0 3.832 3.117 6.961 6.96 6.961h19.677v6.645h-9.81c-.878 0-1.581.703-1.581 1.582 0 .879.703 1.582 1.582 1.582h22.781c.88 0 1.582-.703 1.582-1.582 0-.88-.703-1.582-1.582-1.582H31.56v-6.645h19.675c3.832 0 6.961-3.117 6.961-6.96V11.647a6.962 6.962 0 00-6.96-6.96zM8.72 7.851h42.527c2.086 0 3.797 1.699 3.797 3.796v22.536H4.922V11.648c0-2.097 1.7-3.796 3.797-3.796zM51.234 42.41H8.72a3.804 3.804 0 01-3.797-3.797v-1.265h50.11v1.265c0 2.086-1.7 3.797-3.798 3.797z"/></svg><svg viewBox="0 0 60 60" id="percent" xmlns="http://www.w3.org/2000/svg"><path clip-rule="evenodd" d="M48.2 11.8c.733.731.733 1.919 0 2.65L14.45 48.2a1.875 1.875 0 11-2.65-2.65L45.55 11.8a1.875 1.875 0 012.65 0zM17.813 13.125a4.688 4.688 0 100 9.375 4.688 4.688 0 000-9.375zm-8.438 4.688a8.438 8.438 0 1116.875 0 8.438 8.438 0 01-16.875 0zM42.188 37.5a4.688 4.688 0 100 9.375 4.688 4.688 0 000-9.375zm-8.438 4.688a8.438 8.438 0 1116.875 0 8.438 8.438 0 01-16.875 0z"/></svg><svg viewBox="0 0 18 18" id="phone" xmlns="http://www.w3.org/2000/svg"><path d="M13.293 17.455c.08.004.158.007.24.007.867 0 1.59-.314 2.158-.93l.015-.015c.203-.243.432-.465.675-.697.166-.159.336-.321.495-.49.756-.79.753-1.79-.008-2.55l-2.103-2.104c-.362-.377-.793-.576-1.251-.576-.454 0-.89.196-1.262.568l-1.244 1.244c-.11-.063-.225-.118-.336-.173-.14-.07-.269-.137-.383-.207-1.14-.723-2.174-1.668-3.163-2.882-.498-.628-.827-1.152-1.06-1.69.326-.296.628-.602.92-.9.107-.108.214-.219.325-.33.79-.789.79-1.767 0-2.553L6.266 2.133l-.358-.362c-.232-.236-.472-.483-.712-.705-.362-.361-.79-.55-1.244-.55-.45 0-.885.189-1.262.55L1.38 2.373A2.731 2.731 0 00.568 4.11c-.066.841.089 1.734.487 2.812.617 1.664 1.543 3.21 2.916 4.864a17.993 17.993 0 005.974 4.679c.875.417 2.045.904 3.348.989zm-8.625-6.248c-1.306-1.572-2.18-3.033-2.76-4.598-.358-.963-.49-1.712-.436-2.424.041-.462.218-.846.55-1.174l1.303-1.303c.2-.192.417-.291.631-.291.21 0 .417.1.616.295.233.218.458.447.694.686.118.122.24.248.365.37l1.045 1.044c.428.428.428.849 0 1.277-.11.11-.222.221-.329.332-.324.328-.627.638-.963.937l-.018.019c-.3.298-.255.586-.181.8l.011.03c.27.65.65 1.266 1.233 2.004 1.051 1.295 2.158 2.303 3.384 3.081.15.096.31.177.464.255.14.07.27.136.384.206l.04.022a.77.77 0 00.351.09.74.74 0 00.536-.248l1.31-1.31c.199-.2.413-.303.623-.303.259 0 .469.163.605.303l2.111 2.11c.517.517.28.982-.01 1.289-.148.158-.303.306-.466.465a9.608 9.608 0 00-.734.76c-.399.428-.871.627-1.487.627-.06 0-.122-.004-.181-.007-1.148-.074-2.21-.52-3.011-.9a16.957 16.957 0 01-5.68-4.444z"/></svg><svg viewBox="0 0 29 28" id="search" xmlns="http://www.w3.org/2000/svg"><path d="M8.69 17.6h1.276l.479-.4c-1.516-1.84-2.474-4.16-2.474-6.8C7.971 4.64 12.6 0 18.341 0c5.665 0 10.292 4.64 10.292 10.4 0 5.76-4.627 10.4-10.37 10.4-2.554 0-4.947-.96-6.781-2.48l-.479.4V20l-7.977 8-2.393-2.4 8.056-8zm9.572 0a7.16 7.16 0 007.18-7.2c0-4-3.191-7.2-7.18-7.2a7.16 7.16 0 00-7.18 7.2c0 4 3.192 7.2 7.18 7.2z"/></svg><svg viewBox="0 0 58 58" id="shield" xmlns="http://www.w3.org/2000/svg"><g clip-path="url(#qclip0_361_379)"><path d="M52.072 9.392L29.869.173a2.266 2.266 0 00-1.738 0L5.928 9.392a2.266 2.266 0 00-1.397 2.092V22.69c0 15.43 9.327 29.31 23.613 35.142a2.267 2.267 0 001.712 0A37.942 37.942 0 0053.47 22.69V11.484c0-.916-.551-1.741-1.397-2.092zM48.937 22.69c0 13.118-7.703 25.193-19.937 30.583C17.093 48.027 9.062 36.163 9.062 22.69v-9.693L29 4.719l19.938 8.278v9.693zm-22.441 7.637l9.738-9.738a2.266 2.266 0 013.204 3.204l-11.34 11.34a2.266 2.266 0 01-3.204 0l-6.332-6.332a2.265 2.265 0 113.204-3.203l4.73 4.73z"/></g><defs><clipPath id="qclip0_361_379"><path d="M0 0h58v58H0z"/></clipPath></defs></svg><svg viewBox="0 0 58 58" id="sofa" xmlns="http://www.w3.org/2000/svg"><path d="M50.75 27.417V17.219a5.444 5.444 0 00-5.438-5.438H12.688A5.444 5.444 0 007.25 17.22v10.198a7.263 7.263 0 00-5.438 7.02v12.688a3.63 3.63 0 003.625 3.625H7.25v5.438h3.625V50.75h36.25v5.438h3.625V50.75h1.813a3.63 3.63 0 003.624-3.625V34.437a7.263 7.263 0 00-5.437-7.02zM12.687 47.125h-7.25V34.437a3.625 3.625 0 017.25 0v12.688zm29 0H16.314V36.25h25.375v10.875zm.23-14.5H16.083a7.277 7.277 0 00-5.208-5.208V17.219a1.815 1.815 0 011.813-1.813h32.624a1.815 1.815 0 011.813 1.813v10.198a7.277 7.277 0 00-5.208 5.208zm10.645 14.5h-7.25V34.437a3.625 3.625 0 017.25 0l.003 12.688h-.002z"/></svg><svg viewBox="0 0 58 58" id="star" xmlns="http://www.w3.org/2000/svg"><path d="M26.762 6.363c.773-2.04 3.7-2.04 4.475 0L36.24 20.22a2.393 2.393 0 002.238 1.53H50.77c2.272 0 3.263 2.827 1.477 4.212L43.5 33.833a2.339 2.339 0 00-.779 2.64l3.195 13.54c.778 2.175-1.74 4.043-3.644 2.704l-11.883-7.54a2.417 2.417 0 00-2.78 0l-11.882 7.54c-1.902 1.339-4.422-.532-3.644-2.704l3.195-13.54a2.339 2.339 0 00-.779-2.64l-8.748-7.87c-1.788-1.386-.793-4.213 1.474-4.213H19.52a2.39 2.39 0 002.238-1.53l5.002-13.857h.003z"/></svg><svg viewBox="0 0 58 58" id="time" xmlns="http://www.w3.org/2000/svg"><path d="M29 53.167c13.347 0 24.167-10.82 24.167-24.167 0-13.347-10.82-24.167-24.167-24.167C15.653 4.833 4.833 15.653 4.833 29c0 13.347 10.82 24.167 24.167 24.167z"/><path d="M29.01 14.5v14.51l10.245 10.247"/></svg><svg viewBox="0 0 22 18" id="visuallyImpaired" xmlns="http://www.w3.org/2000/svg"><path d="M2.455 0A2.464 2.464 0 000 2.455V13.09C0 15.789 2.211 18 4.91 18c2.697 0 4.908-2.211 4.908-4.91v-.817c0-.289-.063-.563-.153-.819h1.943c-.09.256-.154.53-.154.819v.818c0 2.698 2.212 4.909 4.91 4.909s4.909-2.211 4.909-4.91V2.456A2.464 2.464 0 0018.818 0a2.464 2.464 0 00-2.454 2.455v.818H18v-.818c0-.455.364-.819.818-.819.454 0 .818.364.818.819v7.517a2.462 2.462 0 00-.818-.154H2.455c-.289 0-.563.064-.819.154V2.455c0-.455.364-.819.819-.819.454 0 .818.364.818.819v.818h1.636v-.818A2.464 2.464 0 002.455 0zm0 11.454h4.909c.454 0 .818.365.818.819v.818a3.28 3.28 0 01-3.273 3.273 3.28 3.28 0 01-3.273-3.273v-.818c0-.454.364-.819.819-.819zm11.454 0h4.91c.453 0 .817.365.817.819v.818a3.28 3.28 0 01-3.272 3.273 3.28 3.28 0 01-3.273-3.273v-.818c0-.454.364-.819.818-.819z"/></svg><svg viewBox="0 0 60 60" id="wallet" xmlns="http://www.w3.org/2000/svg"><path clip-rule="evenodd" d="M13.125 13.125a1.875 1.875 0 100 3.75h37.5a3.75 3.75 0 013.75 3.75v26.25a3.75 3.75 0 01-3.75 3.75h-37.5A5.625 5.625 0 017.5 45V15a5.625 5.625 0 015.625-5.625H45a1.875 1.875 0 010 3.75H13.125zm-1.875 7.178V45a1.875 1.875 0 001.875 1.875h37.5v-26.25h-37.5c-.645 0-1.278-.11-1.875-.322z"/><path d="M42.188 36.563a2.813 2.813 0 100-5.626 2.813 2.813 0 000 5.625z"/></svg></svg>