<?xml version="1.0" encoding="utf-8"?><svg viewBox="0 0 60 60" xmlns="http://www.w3.org/2000/svg" xmlns:xlink="http://www.w3.org/1999/xlink"><style>:root>svg{display:none}:root>svg:target{display:block}</style><svg viewBox="0 0 15 9" id="arrow-down" xmlns="http://www.w3.org/2000/svg"><path d="M12.855 0L7.5 5.563 2.145 0 .5 1.713 7.5 9l7-7.287L12.855 0z"/></svg><svg viewBox="0 0 14 14" id="arrow-right" xmlns="http://www.w3.org/2000/svg"><path clip-rule="evenodd" d="M1.93 7c0-.174.068-.34.186-.463a.623.623 0 01.448-.192h7.34l-2.72-2.812a.667.667 0 010-.927.624.624 0 01.449-.192c.168 0 .33.069.448.192l3.802 3.93a.658.658 0 01.186.464.675.675 0 01-.186.464l-3.802 3.93a.624.624 0 01-.448.192.624.624 0 01-.449-.192.667.667 0 010-.928l2.72-2.811h-7.34a.623.623 0 01-.448-.192A.667.667 0 011.931 7z"/></svg><svg viewBox="0 0 15 14" id="burger-icon" xmlns="http://www.w3.org/2000/svg"><path d="M.5 2h14V0H.5zM.5 8h14V6H.5zM.5 14h14v-2H.5z"/></svg><svg viewBox="0 0 60 60" id="doc" xmlns="http://www.w3.org/2000/svg"><path clip-rule="evenodd" d="M20.625 31.875c0-1.035.84-1.875 1.875-1.875h15a1.875 1.875 0 010 3.75h-15a1.875 1.875 0 01-1.875-1.875zM20.625 39.375c0-1.035.84-1.875 1.875-1.875h15a1.875 1.875 0 010 3.75h-15a1.875 1.875 0 01-1.875-1.875z"/><path clip-rule="evenodd" d="M10.472 6.723a3.75 3.75 0 012.651-1.098h22.502c.497 0 .974.198 1.326.55l13.125 13.124c.352.352.549.829.549 1.326v30a3.751 3.751 0 01-3.75 3.75H13.123a3.75 3.75 0 01-3.75-3.75V9.375a3.75 3.75 0 011.099-2.652zm24.376 2.652H13.123v41.25h33.752V21.402L34.848 9.375z"/><path clip-rule="evenodd" d="M35.625 5.625c1.035 0 1.875.84 1.875 1.875v11.25h11.252a1.875 1.875 0 010 3.75H35.625a1.875 1.875 0 01-1.875-1.875V7.5c0-1.036.84-1.875 1.875-1.875z"/></svg><svg viewBox="0 0 16 16.003" id="inst" xmlns="http://www.w3.org/2000/svg"><g><path d="M15.96 4.7a5.848 5.848 0 00-.372-1.941A4.1 4.1 0 0013.246.422 5.863 5.863 0 0011.305.05C10.451.009 10.176 0 8.003 0s-2.445.009-3.3.047a5.849 5.849 0 00-1.939.372 3.9 3.9 0 00-1.419.925A3.94 3.94 0 00.422 2.76 5.863 5.863 0 00.051 4.7C.01 5.558 0 5.83 0 8s.01 2.448.051 3.3a5.847 5.847 0 00.372 1.941 4.1 4.1 0 002.338 2.343 5.863 5.863 0 001.941.372C5.551 15.994 5.828 16 8 16s2.445-.009 3.3-.047a5.846 5.846 0 001.941-.372 4.093 4.093 0 002.342-2.341 5.867 5.867 0 00.368-1.94c.037-.853.047-1.125.047-3.3s-.001-2.442-.038-3.3zm-1.441 6.534a4.386 4.386 0 01-.275 1.485 2.655 2.655 0 01-1.519 1.519 4.4 4.4 0 01-1.485.275c-.844.038-1.1.047-3.232.047s-2.392-.009-3.233-.047a4.384 4.384 0 01-1.485-.275 2.463 2.463 0 01-.919-.6 2.488 2.488 0 01-.6-.919 4.4 4.4 0 01-.275-1.485c-.038-.844-.047-1.1-.047-3.233s.009-2.392.047-3.232a4.384 4.384 0 01.275-1.485 2.432 2.432 0 01.6-.919 2.484 2.484 0 01.919-.6A4.4 4.4 0 014.777 1.5c.844-.037 1.1-.047 3.232-.047s2.392.009 3.233.047a4.386 4.386 0 011.485.275 2.461 2.461 0 01.919.6 2.487 2.487 0 01.6.919 4.4 4.4 0 01.275 1.485c.037.844.047 1.1.047 3.232s-.017 2.384-.05 3.228zm0 0"/><path d="M8.003 3.892a4.111 4.111 0 104.111 4.111 4.112 4.112 0 00-4.111-4.111zm0 6.778a2.667 2.667 0 112.667-2.667 2.667 2.667 0 01-2.667 2.667zm0 0"/><path d="M13.237 3.729a.96.96 0 11-.96-.96.96.96 0 01.96.96zm0 0"/></g></svg><svg viewBox="0 0 26 25" id="marker" xmlns="http://www.w3.org/2000/svg"><path d="M11 2.563c-4.303 0-7.813 3.51-7.813 7.812 0 1.209.495 2.533 1.178 3.93.684 1.404 1.574 2.869 2.473 4.207 1.781 2.677 3.558 4.857 3.558 4.857l.604.744.604-.744s1.777-2.18 3.564-4.857c.893-1.338 1.783-2.803 2.467-4.207.683-1.397 1.177-2.721 1.177-3.93 0-4.303-3.51-7.813-7.812-7.813zm0 1.562c3.46 0 6.25 2.79 6.25 6.25 0 .732-.385 1.947-1.02 3.246-.634 1.307-1.502 2.723-2.36 4.03-1.436 2.148-2.413 3.331-2.87 3.906-.457-.575-1.434-1.758-2.87-3.907-.859-1.306-1.726-2.722-2.36-4.029-.635-1.299-1.02-2.514-1.02-3.246 0-3.46 2.79-6.25 6.25-6.25zm0 4.688c-.861 0-1.563.7-1.563 1.562 0 .861.702 1.563 1.563 1.563s1.563-.702 1.563-1.563S11.86 8.812 11 8.812z"/></svg><svg viewBox="0 0 60 60" id="percent" xmlns="http://www.w3.org/2000/svg"><path clip-rule="evenodd" d="M48.2 11.8c.733.731.733 1.919 0 2.65L14.45 48.2a1.875 1.875 0 11-2.65-2.65L45.55 11.8a1.875 1.875 0 012.65 0zM17.813 13.125a4.688 4.688 0 100 9.375 4.688 4.688 0 000-9.375zm-8.438 4.688a8.438 8.438 0 1116.875 0 8.438 8.438 0 01-16.875 0zM42.188 37.5a4.688 4.688 0 100 9.375 4.688 4.688 0 000-9.375zm-8.438 4.688a8.438 8.438 0 1116.875 0 8.438 8.438 0 01-16.875 0z"/></svg><svg viewBox="0 0 29 28" id="search" xmlns="http://www.w3.org/2000/svg"><path d="M8.69 17.6h1.276l.479-.4c-1.516-1.84-2.474-4.16-2.474-6.8C7.971 4.64 12.6 0 18.341 0c5.665 0 10.292 4.64 10.292 10.4 0 5.76-4.627 10.4-10.37 10.4-2.554 0-4.947-.96-6.781-2.48l-.479.4V20l-7.977 8-2.393-2.4 8.056-8zm9.572 0a7.16 7.16 0 007.18-7.2c0-4-3.191-7.2-7.18-7.2a7.16 7.16 0 00-7.18 7.2c0 4 3.192 7.2 7.18 7.2z"/></svg><svg viewBox="0 0 22 18" id="visuallyImpaired" xmlns="http://www.w3.org/2000/svg"><path d="M2.455 0A2.464 2.464 0 000 2.455V13.09C0 15.789 2.211 18 4.91 18c2.697 0 4.908-2.211 4.908-4.91v-.817c0-.289-.063-.563-.153-.819h1.943c-.09.256-.154.53-.154.819v.818c0 2.698 2.212 4.909 4.91 4.909s4.909-2.211 4.909-4.91V2.456A2.464 2.464 0 0018.818 0a2.464 2.464 0 00-2.454 2.455v.818H18v-.818c0-.455.364-.819.818-.819.454 0 .818.364.818.819v7.517a2.462 2.462 0 00-.818-.154H2.455c-.289 0-.563.064-.819.154V2.455c0-.455.364-.819.819-.819.454 0 .818.364.818.819v.818h1.636v-.818A2.464 2.464 0 002.455 0zm0 11.454h4.909c.454 0 .818.365.818.819v.818a3.28 3.28 0 01-3.273 3.273 3.28 3.28 0 01-3.273-3.273v-.818c0-.454.364-.819.819-.819zm11.454 0h4.91c.453 0 .817.365.817.819v.818a3.28 3.28 0 01-3.272 3.273 3.28 3.28 0 01-3.273-3.273v-.818c0-.454.364-.819.818-.819z"/></svg><svg viewBox="0 0 60 60" id="wallet" xmlns="http://www.w3.org/2000/svg"><path clip-rule="evenodd" d="M13.125 13.125a1.875 1.875 0 100 3.75h37.5a3.75 3.75 0 013.75 3.75v26.25a3.75 3.75 0 01-3.75 3.75h-37.5A5.625 5.625 0 017.5 45V15a5.625 5.625 0 015.625-5.625H45a1.875 1.875 0 010 3.75H13.125zm-1.875 7.178V45a1.875 1.875 0 001.875 1.875h37.5v-26.25h-37.5c-.645 0-1.278-.11-1.875-.322z"/><path d="M42.188 36.563a2.813 2.813 0 100-5.626 2.813 2.813 0 000 5.625z"/></svg></svg>