<svg width="42" height="42" viewBox="0 0 42 42" fill="none" xmlns="http://www.w3.org/2000/svg">
<path fill-rule="evenodd" clip-rule="evenodd" d="M8 20.5C8 20.0644 8.17119 19.6466 8.4759 19.3385C8.78061 19.0305 9.19389 18.8574 9.62482 18.8574H28.45L21.473 11.8076C21.1679 11.4991 20.9965 11.0808 20.9965 10.6446C20.9965 10.2085 21.1679 9.79013 21.473 9.4817C21.7781 9.17327 22.1919 9 22.6234 9C23.0548 9 23.4686 9.17327 23.7737 9.4817L33.5226 19.3371C33.674 19.4896 33.794 19.6709 33.8759 19.8705C33.9578 20.07 34 20.2839 34 20.5C34 20.7161 33.9578 20.93 33.8759 21.1295C33.794 21.3291 33.674 21.5104 33.5226 21.6629L23.7737 31.5183C23.4686 31.8267 23.0548 32 22.6234 32C22.1919 32 21.7781 31.8267 21.473 31.5183C21.1679 31.2099 20.9965 30.7915 20.9965 30.3554C20.9965 29.9192 21.1679 29.5009 21.473 29.1924L28.45 22.1426H9.62482C9.19389 22.1426 8.78061 21.9695 8.4759 21.6615C8.17119 21.3534 8 20.9356 8 20.5Z" fill="black"/>
</svg>
