<svg width="14" height="14" viewBox="0 0 14 14" fill="none" xmlns="http://www.w3.org/2000/svg">
<path fill-rule="evenodd" clip-rule="evenodd" d="M1.93091 6.99996C1.93091 6.82623 1.99766 6.65962 2.11647 6.53677C2.23528 6.41392 2.39643 6.34491 2.56446 6.34491H9.90477L7.1843 3.53342C7.06534 3.41042 6.99851 3.24359 6.99851 3.06964C6.99851 2.89569 7.06534 2.72886 7.1843 2.60586C7.30327 2.48286 7.46462 2.41376 7.63286 2.41376C7.8011 2.41376 7.96245 2.48286 8.08141 2.60586L11.8827 6.53619C11.9417 6.59703 11.9885 6.66932 12.0205 6.7489C12.0524 6.82849 12.0688 6.9138 12.0688 6.99996C12.0688 7.08613 12.0524 7.17144 12.0205 7.25102C11.9885 7.33061 11.9417 7.40289 11.8827 7.46374L8.08141 11.3941C7.96245 11.5171 7.8011 11.5862 7.63286 11.5862C7.46462 11.5862 7.30327 11.5171 7.1843 11.3941C7.06534 11.2711 6.99851 11.1042 6.99851 10.9303C6.99851 10.7563 7.06534 10.5895 7.1843 10.4665L9.90477 7.65502H2.56446C2.39643 7.65502 2.23528 7.586 2.11647 7.46316C1.99766 7.34031 1.93091 7.1737 1.93091 6.99996Z" fill="#94C22B"/>
</svg>
