<svg width="60" height="60" viewBox="0 0 60 60" fill="none" xmlns="http://www.w3.org/2000/svg">
<path fill-rule="evenodd" clip-rule="evenodd" d="M20.625 31.875C20.625 30.8395 21.4645 30 22.5 30H37.5C38.5355 30 39.375 30.8395 39.375 31.875C39.375 32.9105 38.5355 33.75 37.5 33.75H22.5C21.4645 33.75 20.625 32.9105 20.625 31.875Z" fill="#94C22B"/>
<path fill-rule="evenodd" clip-rule="evenodd" d="M20.625 39.375C20.625 38.3395 21.4645 37.5 22.5 37.5H37.5C38.5355 37.5 39.375 38.3395 39.375 39.375C39.375 40.4105 38.5355 41.25 37.5 41.25H22.5C21.4645 41.25 20.625 40.4105 20.625 39.375Z" fill="#94C22B"/>
<path fill-rule="evenodd" clip-rule="evenodd" d="M10.4715 6.72335C11.1748 6.02009 12.1286 5.625 13.1232 5.625H35.625C36.1223 5.625 36.5992 5.82254 36.9508 6.17417L50.0758 19.2992C50.4275 19.6508 50.625 20.1277 50.625 20.625V50.625C50.625 51.1174 50.528 51.6051 50.3396 52.0601C50.1511 52.515 49.8749 52.9284 49.5267 53.2767C49.1784 53.6249 48.765 53.9011 48.3101 54.0896C47.8551 54.278 47.3675 54.375 46.875 54.375H13.1232C12.1286 54.375 11.1748 53.9799 10.4715 53.2767C9.76825 52.5734 9.37317 51.6196 9.37317 50.625V9.375C9.37317 8.38044 9.76826 7.42661 10.4715 6.72335ZM34.8484 9.375L13.1232 9.375L13.1232 50.625L46.875 50.625V21.4017L34.8484 9.375Z" fill="#94C22B"/>
<path fill-rule="evenodd" clip-rule="evenodd" d="M35.625 5.625C36.6605 5.625 37.5 6.46447 37.5 7.5V18.75H48.7519C49.7874 18.75 50.6269 19.5895 50.6269 20.625C50.6269 21.6605 49.7874 22.5 48.7519 22.5H35.625C34.5895 22.5 33.75 21.6605 33.75 20.625V7.5C33.75 6.46447 34.5895 5.625 35.625 5.625Z" fill="#94C22B"/>
</svg>
