<svg width="56" height="60" viewBox="0 0 56 60" fill="none" xmlns="http://www.w3.org/2000/svg">
<path d="M23.5277 30.2302H18.3532C18.3004 30.2302 18.274 30.2558 18.2476 30.3071C18.1156 32.5863 17.6667 35.0192 17.0331 37.0167C17.0331 37.0423 17.0331 37.0679 17.0595 37.0935C17.0859 37.1191 17.1123 37.1191 17.1387 37.1191H18.9076C18.9604 37.1191 18.9868 37.0935 18.9868 37.0679C19.4884 35.5313 19.8844 33.5338 20.0428 31.8436H21.7324V37.0423C21.7324 37.0935 21.7852 37.1447 21.838 37.1447H23.5277C23.5805 37.1447 23.6333 37.0935 23.6333 37.0423V30.3071C23.6333 30.2558 23.5805 30.2302 23.5277 30.2302ZM45.4138 30.2302H43.7241C43.6713 30.2302 43.6185 30.2815 43.6185 30.3327V35.5313C43.2489 35.6338 42.8793 35.685 42.4569 35.685C41.3481 35.685 41.0841 35.3521 41.0841 33.918V30.3327C41.0841 30.2815 41.0313 30.2302 40.9785 30.2302H39.3152C39.2624 30.2302 39.2096 30.2815 39.2096 30.3327V34.0972C39.2096 36.4533 40.0281 37.3496 42.1137 37.3496C43.3017 37.3496 44.6482 37.0423 45.4402 36.7606C45.4666 36.735 45.493 36.7094 45.493 36.6838V30.3327C45.5194 30.2558 45.4666 30.2302 45.4138 30.2302ZM9.61456 30.2302H7.89852C7.84572 30.2302 7.81932 30.2558 7.81932 30.3071C7.55531 31.3314 7.0009 33.0729 6.26168 34.8911L4.54564 30.3071C4.51924 30.2815 4.49284 30.2558 4.46644 30.2558H2.724C2.6976 30.2558 2.6712 30.2815 2.6448 30.3071C2.6184 30.3327 2.6184 30.3583 2.6448 30.3839L5.23206 37.2472C4.96805 37.7849 4.73045 38.2203 4.49284 38.63C4.30804 38.9374 4.14963 39.2447 3.99123 39.552C3.96483 39.5776 3.96483 39.6032 3.99123 39.6288C4.01763 39.6544 4.04403 39.68 4.07043 39.68H5.94488C5.97128 39.68 6.02408 39.6544 6.02408 39.6288C6.34088 39.0398 6.73689 38.2203 7.1065 37.3752C8.21533 34.8655 9.08655 32.5095 9.74656 30.3583C9.74656 30.3327 9.74656 30.3071 9.72016 30.2815C9.66736 30.2302 9.64096 30.2302 9.61456 30.2302ZM15.7659 35.5313C15.7659 35.5057 15.7395 35.4801 15.7131 35.4801H15.6339C15.2115 35.6338 14.4459 35.7362 13.9179 35.7362C12.7298 35.7362 12.1754 35.4289 12.1754 33.6875C12.1754 32.279 12.3602 31.6387 13.9179 31.6387C14.3667 31.6387 14.7627 31.69 15.2907 31.8436C15.3435 31.8436 15.3699 31.8436 15.3963 31.7924C15.5811 31.4339 15.8187 30.9985 16.0827 30.4607V30.3839C16.0827 30.3583 16.0563 30.3327 16.0299 30.3327C15.3435 30.1278 14.5251 29.9998 13.7859 29.9998C11.3306 29.9998 10.2218 31.1266 10.2218 33.6619C10.2218 36.2228 11.3306 37.3752 13.7859 37.3752C14.3931 37.3752 15.6339 37.2472 16.2147 37.0167C16.2675 36.9911 16.2939 36.9398 16.2675 36.8886L15.7659 35.5313ZM31.8439 30.2302H30.1278C30.075 30.2302 30.0486 30.2558 30.0486 30.3071C29.7846 31.357 29.2302 33.0729 28.491 34.8911L26.7749 30.3071C26.7485 30.2815 26.7221 30.2558 26.6957 30.2558H24.9533C24.9269 30.2558 24.9005 30.2815 24.8741 30.3071C24.8477 30.3327 24.8477 30.3583 24.8741 30.3839L27.4614 37.2472C27.1974 37.7849 26.9598 38.2203 26.7221 38.63C26.5373 38.9374 26.3789 39.2447 26.2205 39.5776C26.1941 39.6032 26.1941 39.6288 26.2205 39.6544C26.2469 39.68 26.2733 39.7056 26.2997 39.7056H28.1742C28.2006 39.7056 28.2534 39.68 28.2534 39.6544C28.5702 39.0654 28.9662 38.2459 29.3358 37.4008C30.4182 34.8911 31.3158 32.5351 31.9759 30.3839C31.9759 30.3583 31.9759 30.3327 31.9495 30.3071C31.8967 30.2302 31.8703 30.2302 31.8439 30.2302ZM38.18 30.2302H33.1903C33.1375 30.2302 33.0847 30.2815 33.0847 30.3327V37.0679C33.0847 37.1191 33.1375 37.1703 33.1903 37.1703H34.8799C34.9327 37.1703 34.9855 37.1191 34.9855 37.0679V31.8692H37.5992C37.6256 31.8692 37.6784 31.8436 37.6784 31.818C37.8896 31.357 38.0744 30.8705 38.2856 30.3839V30.3071C38.2328 30.2302 38.2064 30.2302 38.18 30.2302Z" fill="#94C22B"/>
<path d="M11.4314 20.343C9.05551 20.343 8.12579 21.3234 8.12579 23.7988C8.12579 26.3234 9.05551 27.3037 11.4314 27.3037C13.8332 27.3037 14.7629 26.3234 14.7629 23.7988C14.7629 21.2988 13.8332 20.343 11.4314 20.343ZM11.4314 25.8577C10.3468 25.8577 10.011 25.5881 10.011 23.8234C10.011 21.9606 10.3726 21.789 11.4314 21.789C12.5161 21.789 12.8777 21.9606 12.8777 23.8234C12.8777 25.5881 12.5419 25.8577 11.4314 25.8577ZM21.3742 25.5881C21.3742 25.5636 21.3484 25.539 21.3225 25.539H21.2451C20.8319 25.6861 20.0829 25.7841 19.5664 25.7841C18.4043 25.7841 17.8619 25.49 17.8619 23.8234C17.8619 22.4753 18.0427 21.8626 19.5664 21.8626C20.0054 21.8626 20.3928 21.9116 20.9093 22.0587C20.961 22.0587 20.9868 22.0587 21.0126 22.0096C21.1934 21.6665 21.4258 21.2498 21.6841 20.7351V20.6616C21.6841 20.6371 21.6583 20.6126 21.6324 20.6126C20.961 20.4165 20.1604 20.2939 19.4373 20.2939C17.0355 20.2939 15.9509 21.3724 15.9509 23.7988C15.9509 26.2498 17.0355 27.3528 19.4373 27.3528C20.0313 27.3528 21.2451 27.2302 21.8132 27.0096C21.8649 26.9851 21.8907 26.9361 21.8649 26.8871L21.3742 25.5881ZM7.60929 20.5145H2.7283C2.67665 20.5145 2.625 20.5636 2.625 20.6126V27.0586C2.625 27.1077 2.67665 27.1567 2.7283 27.1567H4.38112C4.43277 27.1567 4.48442 27.1077 4.48442 27.0586V22.0587H7.01531C7.04113 22.0587 7.09278 22.0341 7.09278 22.0096C7.29938 21.5685 7.48016 21.1028 7.68676 20.6371V20.5636C7.66094 20.539 7.63511 20.5145 7.60929 20.5145Z" fill="#94C22B"/>
<path d="M53.1121 36.751V36.6478C53.1121 36.5961 53.1121 36.5187 53.1384 36.467C53.2173 35.5118 53.2698 34.3501 53.3224 33.0076V32.9043C53.3487 32.0007 53.375 31.0197 53.375 30.0128C53.375 29.006 53.3487 28.0249 53.3224 27.1213V27.0181C53.2698 25.7014 53.2173 24.5138 53.1384 23.5586C53.1384 23.507 53.1384 23.4295 53.1121 23.3779V23.2746C53.1121 23.1714 53.0858 23.0939 53.0858 22.9906V22.8874C53.0069 21.8805 52.9544 21.2609 52.9281 21.2093C52.9281 21.106 52.9018 21.0027 52.9018 20.9253V20.8478C52.8755 20.6671 52.8492 20.5122 52.7966 20.3315C52.7966 20.3057 52.7966 20.2799 52.7703 20.2541C52.3234 18.1629 51.1403 15.8652 49.6681 14.1355C49.0897 13.4642 48.485 12.8704 47.8541 12.4057C47.8015 12.3541 47.0654 11.8378 45.9086 11.0374C44.5678 10.1339 42.6486 8.86883 40.4665 7.62962C36.5756 5.38356 33.1316 3.80873 32.6584 3.62801C32.6321 3.62801 32.6321 3.6022 32.6321 3.6022C31.6068 3.16331 30.3711 2.85351 29.0303 2.72442C28.7674 2.69861 28.5045 2.67279 28.2416 2.67279C27.9787 2.64697 27.7421 2.64697 27.5055 2.64697H27.1374C25.3497 2.69861 23.6934 3.00841 22.3789 3.6022C22.1949 3.67965 18.6983 5.25447 14.7285 7.55217L14.5708 7.62962C10.4958 9.97896 7.31469 12.3025 7.18324 12.4057C6.18422 13.1286 5.29035 14.058 4.47536 15.2456C4.29133 15.5038 4.29133 16.175 5.08003 16.175H7.10437C7.97195 16.175 8.18227 15.6587 9.155 14.9616C10.2329 14.1871 12.3624 12.6381 16.2533 10.3662C19.0664 8.73975 21.6954 7.4489 22.9836 6.85512C23.0099 6.85512 23.0362 6.8293 23.0625 6.8293C23.0625 6.8293 23.0888 6.8293 23.0888 6.80348C23.0888 6.80348 23.1151 6.80348 23.1151 6.77767C23.1413 6.77767 23.1676 6.75185 23.1676 6.75185C23.1939 6.75185 23.2202 6.72603 23.2465 6.72603C23.562 6.57113 23.7723 6.49368 23.7723 6.49368C24.6662 6.10643 25.9281 5.84826 27.2689 5.82244H27.7947C28.1891 5.82244 28.5834 5.84826 28.9515 5.89989C29.7665 6.00316 30.5026 6.15806 31.1073 6.41623C31.1598 6.44205 31.2387 6.46786 31.2913 6.49368C31.2913 6.49368 31.3176 6.5195 31.3965 6.54532C32.0011 6.80348 35.2611 8.32668 38.8103 10.3662C40.9135 11.5796 42.7801 12.793 44.0683 13.6708C45.1988 14.4453 45.8823 14.9358 45.9086 14.9616C46.4081 15.323 46.9076 15.8394 47.3808 16.4073C48.5639 17.9047 49.5366 19.9443 49.6944 21.5191C49.6944 21.5449 49.7732 22.1645 49.8521 23.223C49.8521 23.3004 49.8521 23.3521 49.8784 23.4295V23.5844C49.8784 23.6877 49.9047 23.7651 49.9047 23.8684V23.9717C49.9047 24.0233 49.9047 24.1008 49.931 24.1524C49.931 24.2815 49.9573 24.4106 49.9573 24.5397C49.9573 24.6171 49.9573 24.6946 49.9836 24.772V24.8236C49.9836 24.9269 49.9836 25.0044 50.0099 25.1076V25.3142C50.0887 26.6566 50.1413 28.2573 50.1413 29.9354C50.1413 31.6135 50.0887 33.2141 50.0099 34.5566V34.7631C50.0099 34.8664 50.0099 34.9438 49.9836 35.0471V35.0987C49.9836 35.1762 49.9836 35.2536 49.9573 35.3311C49.9573 35.4602 49.931 35.5893 49.931 35.7183C49.931 35.7958 49.931 35.8474 49.9047 35.8991V36.0023C49.9047 36.1056 49.8784 36.183 49.8784 36.2863V36.4412C49.8784 36.5187 49.8784 36.5961 49.8521 36.6478C49.7732 37.7062 49.6944 38.3517 49.6944 38.3517C49.5366 39.9265 48.5639 41.966 47.3808 43.4634C46.9076 44.0572 46.4081 44.5477 45.9086 44.9091C45.8823 44.9091 45.1988 45.4255 44.0683 46.2C42.7801 47.0778 40.8872 48.2911 38.8103 49.5045C35.2611 51.5699 31.9748 53.0673 31.3965 53.3254L31.2913 53.3771C31.2387 53.4029 31.1598 53.4287 31.1073 53.4545C30.5026 53.6869 29.7665 53.8676 28.9515 53.9709C28.5834 54.0225 28.1891 54.0483 27.7947 54.0483H27.2689C25.9281 54.0225 24.6662 53.7901 23.7723 53.3771C23.7723 53.3771 23.5883 53.2996 23.2465 53.1447C23.2202 53.1189 23.1676 53.1189 23.1413 53.0931C23.1151 53.0673 23.0888 53.0673 23.0625 53.0414C23.0362 53.0414 23.0362 53.0156 23.0099 53.0156C22.9836 53.0156 22.9573 52.9898 22.931 52.9898C22.9047 52.964 22.8784 52.964 22.8259 52.9382H22.7996C21.4588 52.4218 18.9349 51.1826 16.2533 49.6336C12.3361 47.3876 10.2329 45.8127 9.155 45.0382C8.18227 44.3412 7.97195 43.8248 7.10437 43.8248H5.08003C4.29133 43.8248 4.29133 44.4961 4.47536 44.7542C5.29035 45.9418 6.18422 46.8712 7.18324 47.5941C7.31469 47.6974 10.5221 50.0209 14.5708 52.3702C14.7811 52.4993 14.9914 52.6284 15.228 52.7316C18.9875 54.8486 22.2212 56.2944 22.4052 56.3976C23.6934 56.9656 25.376 57.3012 27.1637 57.3529H27.5318C27.7684 57.3529 28.005 57.3529 28.2416 57.327C28.5045 57.327 28.7674 57.3012 29.0303 57.2754C30.3711 57.1463 31.6331 56.8365 32.6321 56.3976C32.6321 56.3976 32.6584 56.3976 32.6584 56.3718C33.1053 56.1653 36.5756 54.5905 40.4403 52.3702C42.6223 51.1052 44.5415 49.866 45.8823 48.9624C47.0391 48.1621 47.7752 47.6457 47.8278 47.5941C48.4587 47.1294 49.0634 46.5356 49.6418 45.8644C51.114 44.1346 52.2971 41.8369 52.744 39.7458C52.744 39.72 52.744 39.6941 52.7703 39.6683C52.7966 39.4876 52.8492 39.3069 52.8755 39.152V39.0745C52.9018 38.9713 52.9018 38.868 52.9018 38.7906C52.9018 38.7389 52.9806 38.1193 53.0595 37.1125V37.0092C53.1121 36.9317 53.1121 36.8543 53.1121 36.751Z" fill="#94C22B"/>
</svg>
