<svg width="18" height="18" viewBox="0 0 18 18" fill="none" xmlns="http://www.w3.org/2000/svg">
<path d="M13.2925 17.4548C13.3737 17.4585 13.4512 17.4622 13.5323 17.4622C14.3996 17.4622 15.1229 17.1485 15.6912 16.5323C15.6949 16.5286 15.7022 16.5212 15.7059 16.5175C15.9089 16.2739 16.1377 16.0525 16.3813 15.82C16.5473 15.6614 16.7171 15.499 16.8758 15.3292C17.6323 14.5395 17.6286 13.5394 16.8684 12.7792L14.7649 10.6758C14.4033 10.2994 13.9715 10.1001 13.5139 10.1001C13.06 10.1001 12.6245 10.2957 12.2518 10.6684L11.0082 11.912C10.8975 11.8493 10.7831 11.7939 10.6724 11.7386C10.5321 11.6685 10.403 11.602 10.2886 11.5319C9.14827 10.8086 8.11499 9.8639 7.12599 8.6498C6.6278 8.02245 6.29937 7.49842 6.06688 6.95964C6.39162 6.66442 6.69423 6.35812 6.98576 6.05921C7.09278 5.95219 7.1998 5.84148 7.31051 5.73077C8.10023 4.94105 8.10023 3.96312 7.31051 3.17709L6.26615 2.13274C6.14437 2.01096 6.02628 1.88918 5.90819 1.77109C5.67571 1.53491 5.43584 1.28766 5.19597 1.06624C4.83432 0.704593 4.40624 0.516388 3.95234 0.516388C3.50212 0.516388 3.06667 0.704593 2.69026 1.06624L1.3802 2.37261C0.900465 2.85234 0.627383 3.43541 0.568339 4.11073C0.501913 4.95212 0.656906 5.84517 1.05546 6.92274C1.67174 8.58706 2.598 10.1333 3.97079 11.7865C5.64249 13.7793 7.65001 15.3551 9.94538 16.4658C10.82 16.8828 11.9898 17.37 13.2925 17.4548ZM4.66826 11.2072C3.36189 9.6351 2.48729 8.17375 1.90792 6.60906C1.54996 5.6459 1.41711 4.89677 1.47246 4.18454C1.51305 3.72325 1.69019 3.33946 2.02231 3.01103L3.32499 1.70835C3.52426 1.51646 3.74199 1.41682 3.95603 1.41682C4.16638 1.41682 4.37303 1.51646 4.57231 1.71204C4.8048 1.92977 5.0299 2.15857 5.26608 2.39844C5.38417 2.52022 5.50595 2.64569 5.63142 2.76747L6.67578 3.81182C7.10385 4.23989 7.10385 4.66059 6.67578 5.08866C6.56507 5.19937 6.45436 5.31008 6.34734 5.42079C6.02259 5.74923 5.71999 6.05921 5.38417 6.35812C5.37679 6.3655 5.3731 6.36919 5.36572 6.37657C5.06681 6.67549 5.11109 6.96333 5.1849 7.17737C5.18859 7.18844 5.19228 7.19582 5.19597 7.20689C5.46536 7.85638 5.84546 8.47266 6.42853 9.21072C7.48026 10.506 8.58735 11.5135 9.81253 12.2921C9.96383 12.3881 10.1225 12.4693 10.2775 12.5467C10.4177 12.6169 10.5469 12.6833 10.6613 12.7534C10.6761 12.7608 10.6871 12.7682 10.7019 12.7755C10.82 12.8346 10.9344 12.8641 11.0525 12.8641C11.344 12.8641 11.5285 12.6796 11.5876 12.6169L12.8976 11.3068C13.0969 11.1075 13.3109 11.0042 13.5213 11.0042C13.7796 11.0042 13.9899 11.1666 14.1265 11.3068L16.2373 13.4177C16.754 13.9343 16.5178 14.3993 16.2263 14.7056C16.0786 14.8643 15.9237 15.0119 15.7613 15.1705C15.514 15.4067 15.2594 15.654 15.0269 15.9307C14.6284 16.3588 14.156 16.5581 13.5397 16.5581C13.4807 16.5581 13.4179 16.5544 13.3589 16.5507C12.2112 16.4769 11.1484 16.0304 10.3476 15.6503C8.16297 14.5985 6.25508 13.104 4.66826 11.2072Z" fill="white" stroke="white" stroke-width="0.3"/>
</svg>
