<svg width="58" height="58" viewBox="0 0 58 58" fill="none" xmlns="http://www.w3.org/2000/svg">
<path d="M50.75 27.4169V17.2188C50.7484 15.7771 50.1749 14.395 49.1556 13.3757C48.1362 12.3563 46.7541 11.7829 45.3125 11.7812H12.6875C11.2459 11.7829 9.8638 12.3563 8.84443 13.3757C7.82506 14.395 7.25165 15.7771 7.25 17.2188V27.4169C5.69472 27.8208 4.31727 28.729 3.33334 29.9994C2.34941 31.2698 1.81455 32.8306 1.8125 34.4375V47.125C1.81358 48.0861 2.19584 49.0075 2.87543 49.6871C3.55502 50.3667 4.47642 50.7489 5.4375 50.75H7.25V56.1875H10.875V50.75H47.125V56.1875H50.75V50.75H52.5625C53.5236 50.7489 54.445 50.3667 55.1246 49.6871C55.8042 49.0075 56.1864 48.0861 56.1875 47.125V34.4375C56.1855 32.8306 55.6506 31.2698 54.6667 29.9994C53.6827 28.729 52.3053 27.8208 50.75 27.4169ZM12.6875 47.125H5.4375V34.4375C5.4375 33.4761 5.81942 32.5541 6.49924 31.8742C7.17906 31.1944 8.10109 30.8125 9.0625 30.8125C10.0239 30.8125 10.9459 31.1944 11.6258 31.8742C12.3056 32.5541 12.6875 33.4761 12.6875 34.4375V47.125ZM41.6875 47.125H16.3125V36.25H41.6875V47.125ZM41.9169 32.625H16.0831C15.7568 31.3721 15.1021 30.2289 14.1866 29.3134C13.2711 28.3979 12.1279 27.7432 10.875 27.4169V17.2188C10.8756 16.7382 11.0667 16.2775 11.4065 15.9377C11.7463 15.598 12.207 15.4068 12.6875 15.4062H45.3125C45.793 15.4068 46.2537 15.598 46.5935 15.9377C46.9333 16.2775 47.1244 16.7382 47.125 17.2188V27.4169C45.8721 27.7432 44.7289 28.3979 43.8134 29.3134C42.8979 30.2289 42.2432 31.3721 41.9169 32.625ZM52.5625 47.125H45.3125V34.4375C45.3125 33.4761 45.6944 32.5541 46.3742 31.8742C47.0541 31.1944 47.9761 30.8125 48.9375 30.8125C49.8989 30.8125 50.8209 31.1944 51.5008 31.8742C52.1806 32.5541 52.5625 33.4761 52.5625 34.4375L52.5648 47.125H52.5625Z" fill="#6C2F7C"/>
</svg>
