<svg width="60" height="60" viewBox="0 0 60 60" fill="none" xmlns="http://www.w3.org/2000/svg">
<path fill-rule="evenodd" clip-rule="evenodd" d="M13.125 13.125C12.6277 13.125 12.1508 13.3225 11.7992 13.6742C11.4475 14.0258 11.25 14.5027 11.25 15C11.25 15.4973 11.4475 15.9742 11.7992 16.3258C12.1508 16.6775 12.6277 16.875 13.125 16.875H50.625C51.6196 16.875 52.5734 17.2701 53.2767 17.9734C53.9799 18.6766 54.375 19.6304 54.375 20.625V46.875C54.375 47.8696 53.9799 48.8234 53.2767 49.5267C52.5734 50.2299 51.6196 50.625 50.625 50.625H13.125C11.6332 50.625 10.2024 50.0324 9.14752 48.9775C8.09263 47.9226 7.5 46.4918 7.5 45V15C7.5 13.5082 8.09263 12.0774 9.14752 11.0225C10.2024 9.96763 11.6332 9.375 13.125 9.375H45C46.0355 9.375 46.875 10.2145 46.875 11.25C46.875 12.2855 46.0355 13.125 45 13.125H13.125ZM11.25 20.3033V45C11.25 45.4973 11.4475 45.9742 11.7992 46.3258C12.1508 46.6775 12.6277 46.875 13.125 46.875H50.625V20.625H13.125C12.4801 20.625 11.8466 20.5143 11.25 20.3033Z" fill="#94C22B"/>
<path d="M42.1875 36.5625C43.7408 36.5625 45 35.3033 45 33.75C45 32.1967 43.7408 30.9375 42.1875 30.9375C40.6342 30.9375 39.375 32.1967 39.375 33.75C39.375 35.3033 40.6342 36.5625 42.1875 36.5625Z" fill="#94C22B"/>
</svg>
