<svg width="88" height="22" viewBox="0 0 88 22" fill="none" xmlns="http://www.w3.org/2000/svg">
<g clip-path="url(#clip0_2_425)">
<path fill-rule="evenodd" clip-rule="evenodd" d="M47.3132 5.32749C47.5249 5.54893 49.4298 10.8242 49.629 11.4755C49.8274 12.1733 50.1076 12.8427 50.4632 13.4684C51.1231 13.6247 51.1853 12.9344 51.3845 12.3873C52.4677 9.43051 54.1112 5.11909 54.9329 2.21441C55.5056 0.807658 55.5554 0.429919 54.5221 0.429919C53.4887 0.429919 53.6007 1.13329 53.1898 2.04508C52.8288 3.77746 51.4343 7.43762 50.9239 9.1179C50.9239 9.33933 50.9239 9.33933 50.6624 9.33933C49.8033 6.83845 48.8073 3.77746 47.8361 1.30263C47.5747 0.820683 47.114 0.716479 46.8028 1.79759C46.2798 3.51695 45.5577 5.56195 44.9974 7.22921C44.9974 7.22921 44.3251 9.33933 44.2753 9.44354C43.9192 8.84461 43.6585 8.18914 43.5034 7.50275C42.7314 5.50985 42.0591 3.36065 41.3992 1.36775C41.2374 0.990014 41.2374 0.768581 40.8763 0.547148C40.5144 0.406841 40.1231 0.370852 39.7433 0.442945C38.7224 0.612276 39.3823 1.47196 39.5939 2.1102C40.839 5.61405 42.221 9.82128 43.603 13.1558C43.6353 13.2384 43.6879 13.3107 43.7555 13.3653C43.823 13.4198 43.9031 13.4548 43.9877 13.4667C44.0723 13.4786 44.1583 13.467 44.2373 13.433C44.3162 13.399 44.3851 13.3438 44.4372 13.273C44.6364 12.8692 47.1638 5.32749 47.3132 5.32749Z" fill="#221F20"/>
<path fill-rule="evenodd" clip-rule="evenodd" d="M0.200033 0.651204C0.148566 0.868191 0.166049 1.09681 0.249834 1.30248C0.461493 2.21426 -0.161031 12.6086 0.000824797 13.0254C0.504789 13.2625 1.06982 13.3175 1.60694 13.1817C1.85595 12.9082 1.75634 12.6477 1.75634 12.2178C1.75634 10.3812 1.90575 8.60976 1.90575 6.72107C1.968 6.01769 2.0178 5.53575 2.0178 5.10591C2.0178 4.67607 2.0178 4.72817 2.11741 4.62397C2.21701 4.51977 3.84802 7.48957 4.00988 7.81521C4.32114 8.45345 4.93122 9.43036 5.34208 10.1858C5.96461 11.3712 6.27587 10.5636 6.42527 10.29C6.78634 9.8081 9.57525 4.6891 9.77445 4.58489C9.96121 4.7933 9.96121 9.91231 9.96121 10.29C9.96121 13.0905 9.64995 13.3641 11.3432 13.2468C11.8661 13.2468 11.9159 12.817 11.8661 12.335C11.8661 11.4233 11.8661 10.3942 11.8661 9.48247C11.7292 7.16393 11.6296 4.51977 11.6296 2.21426C11.6296 1.94072 11.7292 0.911713 11.7292 0.755408C11.5768 0.575714 11.3703 0.455823 11.1439 0.415559C10.9175 0.375296 10.6847 0.41707 10.4841 0.533975C10.1231 0.755408 10.0235 1.23735 9.762 1.56299C8.71616 3.50378 7.30926 5.70508 6.32567 7.54167C5.96461 8.19294 5.96461 7.97151 5.65334 7.54167C4.98102 6.51266 4.10948 4.7412 3.49941 3.71219L2.25436 1.56299C2.0813 1.1895 1.85919 0.843142 1.59449 0.533975C1.24587 0.273466 0.561096 0.481873 0.200033 0.651204Z" fill="#221F20"/>
<path fill-rule="evenodd" clip-rule="evenodd" d="M65.8986 6.68213C66.3392 6.30596 66.862 6.04965 67.4203 5.93602C67.9785 5.82239 68.555 5.85497 69.0983 6.03085C70.7418 6.78633 70.9535 9.32629 70.2313 10.5637C69.9238 11.046 69.4807 11.4165 68.9634 11.6241C68.446 11.8318 67.8798 11.8663 67.3428 11.723C66.8227 11.6156 66.3303 11.3936 65.8986 11.0717V6.68213ZM65.8986 4.84554C65.8209 3.42692 65.8209 2.00482 65.8986 0.586212C65.8986 6.59189e-05 65.6993 -0.104138 65.1764 0.10427C63.9314 0.651339 63.9314 0.429906 64.1057 1.61522C64.2053 2.21439 64.1057 9.15696 64.1057 10.1339C64.1057 12.0616 63.8442 12.5045 66.5211 13.3121C67.2833 13.4793 68.07 13.4836 68.8338 13.3247C69.5976 13.1658 70.3229 12.8469 70.9659 12.3873C73.593 10.1339 72.8708 3.77745 68.0774 4.25939C67.6596 4.28305 67.2437 4.33526 66.8323 4.4157C66.6705 4.4678 66.0604 4.84554 65.9857 4.84554H65.8986Z" fill="#221F20"/>
<path fill-rule="evenodd" clip-rule="evenodd" d="M29.5935 13.1428C29.7882 12.4635 29.8433 11.7488 29.7553 11.0457C29.7044 10.3085 29.7044 9.56848 29.7553 8.83133C29.9047 8.83133 30.0666 9.10487 30.3779 9.4305C30.6891 9.75614 33.2539 12.5566 33.6648 12.8692C33.8081 13.0088 33.9809 13.111 34.1691 13.1676C34.3574 13.2242 34.5557 13.2335 34.748 13.1949C35.109 13.1949 35.6818 13.1949 35.881 12.9344C35.881 12.5566 35.1588 11.9574 34.8476 11.6318C34.5363 11.3062 34.1379 10.8894 33.7768 10.4465C32.9849 9.71736 32.2443 8.92945 31.5606 8.08888C31.5606 7.97165 34.3869 5.48379 34.9098 5.01487C35.109 4.79344 35.3207 4.74134 35.2709 4.4157C34.6301 4.20889 33.9445 4.20889 33.3037 4.4157C33.0547 4.53293 31.349 6.14809 30.8883 6.57793C30.7389 6.73424 29.8549 7.71114 29.7553 7.65904C29.6059 7.16408 29.7553 0.429912 29.6557 0.052174C29.5561 -0.325564 27.8006 0.273607 27.8504 0.92488C27.948 1.38247 27.9981 1.84976 27.9998 2.3186V11.6318C27.9998 11.9574 27.9002 12.9344 28.1119 13.0907C28.5963 13.2202 29.1018 13.238 29.5935 13.1428V13.1428Z" fill="#221F20"/>
<path fill-rule="evenodd" clip-rule="evenodd" d="M16.1825 8.72706C16.7553 8.57075 18.6726 9.0527 18.7598 9.58674C18.8096 10.163 18.8096 10.7428 18.7598 11.3191C18.3987 11.8011 15.9211 12.765 15.0994 11.0456C14.9886 10.8013 14.9312 10.5344 14.9312 10.2641C14.9312 9.99373 14.9886 9.72678 15.0994 9.48254C15.2189 9.28394 15.3772 9.114 15.5638 8.98381C15.7505 8.85362 15.9613 8.76613 16.1825 8.72706ZM18.8096 8.07579C18.3258 7.74048 17.7847 7.50607 17.2159 7.38544C16.5072 7.30333 15.7901 7.35629 15.0994 7.54174C14.5178 7.716 14.005 8.08089 13.6364 8.58275C13.2678 9.08461 13.0629 9.69696 13.0517 10.3297C13.0406 10.9625 13.2238 11.5824 13.5745 12.0981C13.9251 12.6138 14.4247 12.9982 14.9997 13.1948C15.9845 13.5461 17.0529 13.5461 18.0377 13.1948C18.2493 13.0906 18.6602 12.8171 18.8096 12.765C18.959 12.7129 19.0213 13.1427 19.2205 13.2469C19.4197 13.3511 20.3535 13.2469 20.6149 12.9864C20.8764 12.7259 20.9262 12.765 20.7643 12.3872C20.5234 11.8888 20.4364 11.3244 20.5153 10.7721V6.89047C20.5804 6.34086 20.4521 5.78525 20.1542 5.32742C19.1707 3.28242 13.2442 4.09 13.7173 5.82238C14.1905 7.55477 14.9624 5.22321 17.577 5.54885C18.9839 5.70515 18.8345 7.1119 18.8345 8.07579H18.8096Z" fill="#221F20"/>
<path fill-rule="evenodd" clip-rule="evenodd" d="M79.7575 7.81588H75.4869C75.5442 7.28105 75.7775 6.78371 76.1468 6.40913C76.55 6.03924 77.0565 5.81539 77.5911 5.77088C77.8695 5.74682 78.1497 5.78171 78.415 5.87346C78.6802 5.96522 78.9251 6.11196 79.1349 6.30492C79.3462 6.48675 79.5129 6.71871 79.6211 6.98151C79.7294 7.24431 79.7761 7.53037 79.7575 7.81588V7.81588ZM75.3749 9.2096C75.6862 9.0533 80.3551 9.2096 81.2017 9.2096C82.0483 9.2096 81.6624 6.30492 80.1185 5.11961C79.4878 4.62767 78.7369 4.33238 77.9526 4.26783C77.1683 4.20329 76.3826 4.37212 75.6861 4.75484C74.9896 5.13755 74.4108 5.71855 74.0164 6.43074C73.6221 7.14293 73.4283 7.95728 73.4575 8.77976C73.428 9.5786 73.6056 10.3709 73.9717 11.0727C74.3378 11.7744 74.8786 12.3594 75.5367 12.7656C76.9187 13.7425 80.629 13.6904 81.0897 12.1794C81.6624 10.2386 80.3177 11.3197 79.8446 11.5281C79.4467 11.6988 79.0274 11.8084 78.5996 11.8538C75.848 12.1794 75.1757 9.63944 75.3749 9.2096Z" fill="#221F20"/>
<path fill-rule="evenodd" clip-rule="evenodd" d="M56.6858 7.81494C56.7295 7.2586 56.9712 6.73971 57.3632 6.36099C57.7552 5.98227 58.2688 5.77133 58.8024 5.76994C59.8731 5.65271 61.1182 6.62962 60.9065 7.81494H56.6858ZM56.4741 9.11748C56.7356 9.11748 61.5788 9.11748 62.2512 9.11748C62.9235 9.11748 62.8114 8.68764 62.7616 8.1536C62.7252 7.43036 62.5099 6.72942 62.1367 6.11942C61.7636 5.50941 61.2454 5.01128 60.6328 4.67381C60.0203 4.33634 59.3345 4.1711 58.6426 4.19428C57.9507 4.21746 57.2764 4.42827 56.6858 4.80606C56.0217 5.21652 55.4786 5.81057 55.1161 6.52293C54.7537 7.23528 54.586 8.03837 54.6315 8.84395C54.5786 9.63917 54.7498 10.4331 55.1237 11.1277C55.4977 11.8222 56.0581 12.3868 56.7356 12.7516C58.4911 13.8848 61.9399 13.4029 62.2512 12.1133C62.2512 11.7356 62.5002 10.8108 61.9399 11.0322C61.2631 11.4325 60.5264 11.7099 59.7611 11.8528C59.3531 11.9099 58.9383 11.8817 58.5408 11.7699C58.1433 11.6581 57.7709 11.4649 57.4453 11.2016C56.997 10.8238 56.2749 9.6906 56.4741 9.11748Z" fill="#221F20"/>
<path fill-rule="evenodd" clip-rule="evenodd" d="M84.4378 13.1943C84.7491 12.8686 84.6993 12.7123 84.6993 12.2304V10.9278C84.6993 9.20846 84.388 6.35589 86.2929 5.92605C86.7038 5.82184 86.8034 6.18656 87.3263 6.08235C87.6347 5.79291 87.8663 5.42498 87.9986 5.01427C87.9986 4.19366 86.7536 4.03736 85.6206 4.5714C85.2595 4.74073 84.9607 5.32688 84.6993 5.37898C84.6993 4.89704 84.7989 4.68863 84.4876 4.25879C84.0885 4.29882 83.7022 4.42761 83.3546 4.63653C82.8441 4.89704 82.7445 4.89704 82.8441 5.54831C82.9437 6.19958 82.8441 10.6673 82.8441 11.7354C82.8939 13.3636 82.8939 13.3115 84.4378 13.1943Z" fill="#221F20"/>
<path fill-rule="evenodd" clip-rule="evenodd" d="M23.7318 13.1429V13.0387C23.8764 11.7157 23.9138 10.3824 23.8439 9.05286C23.8439 8.02385 24.0929 6.35659 25.1761 6.03096C26.0476 5.70532 26.0974 6.565 26.6702 6.03096C28.0024 4.57211 26.2095 3.98596 25.1263 4.4679C24.0431 4.94984 24.1925 5.32758 23.8813 5.43179C23.8562 5.21984 23.8562 5.00548 23.8813 4.79354C23.8813 4.52 23.7692 4.52 23.6696 4.3637C23.2704 4.3603 22.8781 4.47304 22.5366 4.68934C22.0261 4.89774 21.8643 4.94984 22.0261 5.60112C22.1357 6.59972 22.169 7.60586 22.1257 8.61V11.5798C22.2378 13.195 22.0261 13.3122 23.7318 13.1429Z" fill="#221F20"/>
<path fill-rule="evenodd" clip-rule="evenodd" d="M46.9522 14.8751C44.8969 15.1404 42.8759 15.6428 40.9262 16.373C40.3161 16.6466 39.6811 16.8029 39.0711 17.0764C37.826 17.5584 36.6557 17.9882 35.4231 18.4832C35.0122 18.6395 32.0739 19.5513 31.5634 19.6685C29.0733 20.3067 25.3382 21.0622 22.9601 19.929C21.8271 19.3429 21.7151 21.1664 24.2923 21.8177C25.7995 22.0938 27.3461 22.0227 28.8243 21.6093C30.0694 21.3357 31.5634 20.8538 32.7462 20.4761C33.929 20.0983 35.3235 19.6685 36.6059 19.2908C36.9171 19.1735 37.1661 19.0693 37.5272 18.9651L39.4321 18.3659C39.7932 18.2617 40.0546 18.1054 40.3659 17.9882L42.3331 17.5063C42.6941 17.4021 42.9556 17.2979 43.2669 17.1806C45.8736 16.5988 48.5324 16.3106 51.1978 16.3209C51.8577 16.3209 52.8413 16.4903 53.5136 16.5945C54.7587 16.7508 54.4847 16.0604 53.663 15.6176C51.5265 14.7611 49.2127 14.5051 46.9522 14.8751V14.8751Z" fill="#F9CC46"/>
</g>
<defs>
<clipPath id="clip0_2_425">
<rect width="88" height="22" fill="white"/>
</clipPath>
</defs>
</svg>
