<svg width="40" height="40" viewBox="0 0 40 40" fill="none" xmlns="http://www.w3.org/2000/svg">
<rect width="40" height="40" rx="8" fill="#4D7198"/>
<path d="M29.1001 22.9426C30.9681 24.6459 31.3538 25.462 31.414 25.5685C32.1853 26.8223 30.5704 26.9169 30.5704 26.9169L27.4611 26.9642C27.4611 26.9642 26.7863 27.0943 25.9186 26.5029C24.7496 25.7223 23.6288 23.676 22.7972 23.948C21.9416 24.2201 21.9657 26.0535 21.9657 26.0535C21.9657 26.0535 21.9657 26.3137 21.7729 26.5148C21.5559 26.7395 21.1341 26.6567 21.1341 26.6567H19.7482C19.7482 26.6567 16.6751 26.9642 13.9876 24.2082C11.035 21.2039 8.43194 15.2897 8.43194 15.2897C8.43194 15.2897 8.28732 14.9349 8.44399 14.7338C8.62476 14.5445 9.13092 14.5445 9.13092 14.5445H12.4571C12.4571 14.5445 12.7825 14.5445 12.9874 14.7338C13.1682 14.8639 13.2766 15.136 13.2766 15.136C13.2766 15.136 13.8069 16.4489 14.53 17.6554C15.9159 20.0092 16.5546 20.5178 17.0005 20.2694C17.7236 19.9027 17.5187 16.9457 17.5187 16.9457C17.5187 16.9457 17.5308 15.8693 17.1692 15.3962C16.892 15.0295 16.3618 14.9112 16.1328 14.8876C15.94 14.8639 16.2533 14.4381 16.651 14.237C17.2536 13.9531 18.3021 13.9531 19.5554 13.9531C20.5316 13.9531 20.8088 14.0241 21.1824 14.1069C22.3393 14.3789 21.9416 15.4317 21.9416 17.9393C21.9416 18.7554 21.8211 19.8673 22.3875 20.2576C22.6406 20.4232 23.2672 20.2813 24.8339 17.6909C25.557 16.4607 26.1114 15.0058 26.1114 15.0058C26.1114 15.0058 26.2319 14.7574 26.4127 14.6392C26.6055 14.5445 26.8706 14.5445 26.8706 14.5445H30.3655C30.3655 14.5445 31.4261 14.4263 31.5948 14.8876C31.7756 15.3725 31.1971 16.5199 29.763 18.3769C27.425 21.4523 27.1599 21.1684 29.1001 22.9426Z" fill="white"/>
</svg>
