<svg width="15" height="15" viewBox="0 0 15 15" fill="none" xmlns="http://www.w3.org/2000/svg">
<g clip-path="url(#clip0_449_594)">
<path fill-rule="evenodd" clip-rule="evenodd" d="M12.9259 1.37036H2.25922C2.02348 1.37036 1.79738 1.46402 1.63068 1.63071C1.46398 1.79741 1.37033 2.02351 1.37033 2.25925V12.5579L3.14811 10.7801C3.48143 10.4467 3.93354 10.2594 4.405 10.2593H12.9259C13.1616 10.2593 13.3877 10.1656 13.5544 9.9989C13.7211 9.83221 13.8148 9.60611 13.8148 9.37037V2.25925C13.8148 2.02351 13.7211 1.79741 13.5544 1.63071C13.3877 1.46402 13.1616 1.37036 12.9259 1.37036ZM2.25922 0.481476C1.78773 0.481476 1.33554 0.668777 1.00214 1.00217C0.668746 1.33557 0.481445 1.78776 0.481445 2.25925L0.481445 13.6308C0.481464 13.7188 0.507572 13.8047 0.556465 13.8778C0.605358 13.9509 0.674838 14.0079 0.756111 14.0415C0.837385 14.075 0.926797 14.0838 1.01303 14.0665C1.09927 14.0493 1.17845 14.0069 1.24056 13.9446L3.77656 11.4086C3.94322 11.2419 4.16927 11.1482 4.405 11.1481H12.9259C13.3974 11.1481 13.8496 10.9608 14.183 10.6274C14.5164 10.294 14.7037 9.84186 14.7037 9.37037V2.25925C14.7037 1.78776 14.5164 1.33557 14.183 1.00217C13.8496 0.668777 13.3974 0.481476 12.9259 0.481476L2.25922 0.481476Z" fill="white"/>
<path fill-rule="evenodd" clip-rule="evenodd" d="M3.14807 3.59258C3.14807 3.4747 3.1949 3.36166 3.27825 3.27831C3.3616 3.19496 3.47464 3.14813 3.59252 3.14813H11.5925C11.7104 3.14813 11.8234 3.19496 11.9068 3.27831C11.9901 3.36166 12.037 3.4747 12.037 3.59258C12.037 3.71045 11.9901 3.8235 11.9068 3.90685C11.8234 3.9902 11.7104 4.03702 11.5925 4.03702H3.59252C3.47464 4.03702 3.3616 3.9902 3.27825 3.90685C3.1949 3.8235 3.14807 3.71045 3.14807 3.59258ZM3.14807 5.8148C3.14807 5.69692 3.1949 5.58388 3.27825 5.50053C3.3616 5.41718 3.47464 5.37035 3.59252 5.37035H11.5925C11.7104 5.37035 11.8234 5.41718 11.9068 5.50053C11.9901 5.58388 12.037 5.69692 12.037 5.8148C12.037 5.93267 11.9901 6.04572 11.9068 6.12907C11.8234 6.21242 11.7104 6.25924 11.5925 6.25924H3.59252C3.47464 6.25924 3.3616 6.21242 3.27825 6.12907C3.1949 6.04572 3.14807 5.93267 3.14807 5.8148ZM3.14807 8.03702C3.14807 7.91915 3.1949 7.8061 3.27825 7.72275C3.3616 7.6394 3.47464 7.59258 3.59252 7.59258H8.03696C8.15483 7.59258 8.26788 7.6394 8.35123 7.72275C8.43458 7.8061 8.4814 7.91915 8.4814 8.03702C8.4814 8.15489 8.43458 8.26794 8.35123 8.35129C8.26788 8.43464 8.15483 8.48147 8.03696 8.48147H3.59252C3.47464 8.48147 3.3616 8.43464 3.27825 8.35129C3.1949 8.26794 3.14807 8.15489 3.14807 8.03702Z" fill="white"/>
</g>
<defs>
<clipPath id="clip0_449_594">
<rect width="14.2222" height="14.2222" fill="white" transform="translate(0.481445 0.481476)"/>
</clipPath>
</defs>
</svg>
