<svg width="60" height="60" viewBox="0 0 60 60" fill="none" xmlns="http://www.w3.org/2000/svg">
<path d="M27.4846 7.56983C26.855 6.88934 25.7928 6.84815 25.1122 7.47783L19.4418 12.7249L17.5884 10.8715C16.9329 10.2159 15.8698 10.2158 15.2141 10.8715C14.5585 11.5271 14.5585 12.59 15.2141 13.2458L18.2096 16.2413C18.2239 16.2556 18.2394 16.268 18.2541 16.2816C18.2747 16.3007 18.2951 16.32 18.3163 16.3379C18.3395 16.3575 18.3635 16.3756 18.3875 16.3936C18.4095 16.4102 18.4312 16.4269 18.4537 16.4422C18.4791 16.4595 18.505 16.475 18.5311 16.4908C18.5535 16.5042 18.5756 16.5182 18.5984 16.5305C18.6264 16.5456 18.6549 16.5588 18.6836 16.5723C18.7056 16.5826 18.7272 16.5936 18.7496 16.6029C18.7805 16.6158 18.8118 16.6266 18.8433 16.6374C18.8643 16.6448 18.885 16.653 18.9064 16.6595C18.9404 16.6698 18.9748 16.6777 19.0093 16.6859C19.0287 16.6905 19.0479 16.6962 19.0675 16.7001C19.1061 16.7078 19.145 16.7128 19.1841 16.7178C19.1999 16.7198 19.2155 16.723 19.2314 16.7246C19.2864 16.73 19.3414 16.7329 19.3966 16.7329C19.3967 16.7329 19.3967 16.7329 19.3967 16.7329C19.3968 16.7329 19.397 16.7329 19.397 16.7329C19.4493 16.7329 19.5018 16.7303 19.5541 16.7254C19.5693 16.7239 19.5844 16.721 19.5996 16.7191C19.6366 16.7146 19.6734 16.7102 19.7101 16.7032C19.7294 16.6995 19.7483 16.6943 19.7673 16.69C19.7995 16.6827 19.8318 16.6757 19.8637 16.6665C19.8848 16.6604 19.9055 16.6526 19.9265 16.6457C19.9557 16.636 19.9849 16.6266 20.0136 16.6151C20.0358 16.6064 20.0574 16.5961 20.0793 16.5864C20.1061 16.5744 20.1328 16.5628 20.1592 16.5493C20.1818 16.5378 20.2037 16.5248 20.2259 16.5123C20.2505 16.4983 20.2751 16.4844 20.2992 16.469C20.3214 16.4548 20.343 16.4392 20.3648 16.4239C20.3878 16.4075 20.4108 16.3912 20.4331 16.3736C20.4541 16.3572 20.4743 16.3396 20.4946 16.322C20.5086 16.3099 20.5232 16.2991 20.537 16.2864L27.3926 9.94238C28.0732 9.31259 28.1143 8.25033 27.4846 7.56983Z" fill="#94C22B"/>
<path d="M52.8516 31.7578H44.0625V24.4833C50.0176 23.6277 54.6094 18.4928 54.6094 12.3047C54.6094 5.51988 49.0895 0 42.3047 0H14.1797C7.39488 0 1.875 5.51988 1.875 12.3047C1.875 19.0895 7.39488 24.6094 14.1797 24.6094H33.5156V31.7578H31.7578C28.85 31.7578 26.4844 34.1235 26.4844 37.0312V41.15C26.4844 48.0066 29.2349 54.6894 34.0305 59.4851C34.3601 59.8147 34.8071 60 35.2734 60H49.3359C49.8022 60 50.2493 59.8147 50.5788 59.4851C55.3745 54.6894 58.125 48.0066 58.125 41.15V37.0312C58.125 34.1235 55.7593 31.7578 52.8516 31.7578ZM14.1797 21.0938C9.3334 21.0938 5.39062 17.151 5.39062 12.3047C5.39062 7.4584 9.3334 3.51562 14.1797 3.51562H42.3047C47.151 3.51562 51.0938 7.4584 51.0938 12.3047C51.0938 16.5491 48.0694 20.1002 44.0625 20.9169V19.3359C44.0625 16.4282 41.6968 14.0625 38.7891 14.0625C35.8813 14.0625 33.5156 16.4282 33.5156 19.3359V21.0938H14.1797ZM54.6094 41.15C54.6094 46.8393 52.4243 52.3863 48.591 56.4844H36.0184C32.1852 52.3863 30 46.8394 30 41.15V37.0312C30 36.062 30.7886 35.2734 31.7578 35.2734H33.5156V40.5469C33.5156 41.5177 34.3027 42.3047 35.2734 42.3047C36.2442 42.3047 37.0312 41.5177 37.0312 40.5469C37.0312 39.2882 37.0312 20.5029 37.0312 19.3359C37.0312 18.3667 37.8198 17.5781 38.7891 17.5781C39.7583 17.5781 40.5469 18.3667 40.5469 19.3359V33.5156C40.5469 34.4864 41.3339 35.2734 42.3047 35.2734H52.8516C53.8208 35.2734 54.6094 36.062 54.6094 37.0312V41.15Z" fill="#94C22B"/>
</svg>
