<svg width="60" height="60" viewBox="0 0 60 60" fill="none" xmlns="http://www.w3.org/2000/svg">
<path fill-rule="evenodd" clip-rule="evenodd" d="M12.3465 8.47942C11.3209 8.47942 10.3373 8.88684 9.61215 9.61203C8.88696 10.3372 8.47955 11.3208 8.47955 12.3464V18.2309C8.47955 19.3451 7.57626 20.2484 6.462 20.2484C5.34774 20.2484 4.44446 19.3451 4.44446 18.2309V12.3464C4.44446 10.2506 5.27699 8.24071 6.75891 6.75879C8.24083 5.27687 10.2508 4.44434 12.3465 4.44434H18.231C19.3453 4.44434 20.2485 5.34762 20.2485 6.46188C20.2485 7.57614 19.3453 8.47942 18.231 8.47942H12.3465Z" fill="#94C22B"/>
<path fill-rule="evenodd" clip-rule="evenodd" d="M6.462 39.7514C7.57626 39.7514 8.47955 40.6546 8.47955 41.7689V47.6534C8.47955 48.679 8.88696 49.6626 9.61215 50.3878C10.3373 51.113 11.3209 51.5204 12.3465 51.5204H18.231C19.3453 51.5204 20.2485 52.4237 20.2485 53.5379C20.2485 54.6522 19.3453 55.5555 18.231 55.5555H12.3465C10.2508 55.5555 8.24083 54.7229 6.75891 53.241C5.27699 51.7591 4.44446 49.7492 4.44446 47.6534V41.7689C4.44446 40.6546 5.34774 39.7514 6.462 39.7514Z" fill="#94C22B"/>
<path fill-rule="evenodd" clip-rule="evenodd" d="M39.7515 6.46188C39.7515 5.34762 40.6548 4.44434 41.769 4.44434H47.6535C49.7493 4.44434 51.7592 5.27687 53.2411 6.75879C54.723 8.24071 55.5556 10.2506 55.5556 12.3464V18.2309C55.5556 19.3451 54.6523 20.2484 53.538 20.2484C52.4238 20.2484 51.5205 19.3451 51.5205 18.2309V12.3464C51.5205 11.3208 51.1131 10.3372 50.3879 9.61203C49.6627 8.88683 48.6791 8.47942 47.6535 8.47942H41.769C40.6548 8.47942 39.7515 7.57614 39.7515 6.46188Z" fill="#94C22B"/>
<path fill-rule="evenodd" clip-rule="evenodd" d="M53.538 39.7514C54.6523 39.7514 55.5556 40.6546 55.5556 41.7689V47.6534C55.5556 49.7492 54.723 51.7591 53.2411 53.241C51.7592 54.7229 49.7493 55.5555 47.6535 55.5555H41.769C40.6548 55.5555 39.7515 54.6522 39.7515 53.5379C39.7515 52.4237 40.6548 51.5204 41.769 51.5204H47.6535C48.6791 51.5204 49.6627 51.113 50.3879 50.3878C51.1131 49.6626 51.5205 48.679 51.5205 47.6534V41.7689C51.5205 40.6546 52.4238 39.7514 53.538 39.7514Z" fill="#94C22B"/>
<path fill-rule="evenodd" clip-rule="evenodd" d="M19.1557 24.1154C19.1557 23.0011 20.059 22.0978 21.1733 22.0978H21.201C22.3153 22.0978 23.2185 23.0011 23.2185 24.1154C23.2185 25.2297 22.3153 26.1329 21.201 26.1329H21.1733C20.059 26.1329 19.1557 25.2297 19.1557 24.1154Z" fill="#94C22B"/>
<path fill-rule="evenodd" clip-rule="evenodd" d="M36.8092 24.1154C36.8092 23.0011 37.7125 22.0978 38.8268 22.0978H38.8545C39.9688 22.0978 40.872 23.0011 40.872 24.1154C40.872 25.2297 39.9688 26.1329 38.8545 26.1329H38.8268C37.7125 26.1329 36.8092 25.2297 36.8092 24.1154Z" fill="#94C22B"/>
<path fill-rule="evenodd" clip-rule="evenodd" d="M21.2324 37.3856C22.0283 36.6057 23.3057 36.6188 24.0855 37.4147C24.8565 38.2015 25.7767 38.8266 26.7923 39.2534C27.8079 39.6802 28.8984 39.9 30 39.9C31.1016 39.9 32.1922 39.6802 33.2077 39.2534C34.2233 38.8266 35.1436 38.2015 35.9145 37.4147C36.6944 36.6188 37.9717 36.6057 38.7676 37.3856C39.5635 38.1654 39.5766 39.4427 38.7967 40.2386C37.6501 41.409 36.2814 42.3387 34.7709 42.9734C33.2604 43.6081 31.6384 43.9351 30 43.9351C28.3616 43.9351 26.7396 43.6081 25.2291 42.9734C23.7186 42.3387 22.35 41.409 21.2033 40.2386C20.4235 39.4427 20.4365 38.1654 21.2324 37.3856Z" fill="#94C22B"/>
</svg>
