<svg width="26" height="25" viewBox="0 0 26 25" fill="none" xmlns="http://www.w3.org/2000/svg">
<path d="M11 2.5625C6.69727 2.5625 3.1875 6.07227 3.1875 10.375C3.1875 11.584 3.68164 12.9082 4.36523 14.3047C5.04883 15.709 5.93945 17.1738 6.83789 18.5117C8.61914 21.1895 10.3965 23.3691 10.3965 23.3691L11 24.1133L11.6035 23.3691C11.6035 23.3691 13.3809 21.1895 15.168 18.5117C16.0605 17.1738 16.9512 15.709 17.6348 14.3047C18.3184 12.9082 18.8125 11.584 18.8125 10.375C18.8125 6.07227 15.3027 2.5625 11 2.5625ZM11 4.125C14.4609 4.125 17.25 6.91406 17.25 10.375C17.25 11.1074 16.8652 12.3223 16.2305 13.6211C15.5957 14.9277 14.7285 16.3438 13.8691 17.6504C12.4336 19.7988 11.457 20.9824 11 21.5566C10.543 20.9824 9.56641 19.7988 8.13086 17.6504C7.27148 16.3438 6.4043 14.9277 5.76953 13.6211C5.13477 12.3223 4.75 11.1074 4.75 10.375C4.75 6.91406 7.53906 4.125 11 4.125ZM11 8.8125C10.1387 8.8125 9.4375 9.51367 9.4375 10.375C9.4375 11.2363 10.1387 11.9375 11 11.9375C11.8613 11.9375 12.5625 11.2363 12.5625 10.375C12.5625 9.51367 11.8613 8.8125 11 8.8125Z" fill="#94C22B"/>
</svg>
