<svg width="60" height="60" viewBox="0 0 60 60" fill="none" xmlns="http://www.w3.org/2000/svg">
<path d="M51.2344 4.6875H8.71875C4.88672 4.6875 1.75781 7.80469 1.75781 11.6484V38.6133C1.75781 42.4453 4.875 45.5742 8.71875 45.5742H28.3945V52.2188H18.5859C17.707 52.2188 17.0039 52.9219 17.0039 53.8008C17.0039 54.6797 17.707 55.3828 18.5859 55.3828H41.3672C42.2461 55.3828 42.9492 54.6797 42.9492 53.8008C42.9492 52.9219 42.2461 52.2188 41.3672 52.2188H31.5586V45.5742H51.2344C55.0664 45.5742 58.1953 42.457 58.1953 38.6133V11.6484C58.1953 7.80469 55.0781 4.6875 51.2344 4.6875ZM8.71875 7.85156H51.2461C53.332 7.85156 55.043 9.55078 55.043 11.6484V34.1836H4.92188V11.6484C4.92188 9.55078 6.62109 7.85156 8.71875 7.85156ZM51.2344 42.4102H8.71875C6.63281 42.4102 4.92188 40.7109 4.92188 38.6133V37.3477H55.0312V38.6133C55.0312 40.6992 53.332 42.4102 51.2344 42.4102Z" fill="#94C22B"/>
</svg>
