<svg width="60" height="60" viewBox="0 0 60 60" fill="none" xmlns="http://www.w3.org/2000/svg">
<path fill-rule="evenodd" clip-rule="evenodd" d="M48.2008 11.7992C48.9331 12.5314 48.9331 13.7186 48.2008 14.4508L14.4508 48.2008C13.7186 48.9331 12.5314 48.9331 11.7992 48.2008C11.0669 47.4686 11.0669 46.2814 11.7992 45.5492L45.5492 11.7992C46.2814 11.0669 47.4686 11.0669 48.2008 11.7992Z" fill="#94C22B"/>
<path fill-rule="evenodd" clip-rule="evenodd" d="M17.8125 13.125C15.2237 13.125 13.125 15.2237 13.125 17.8125C13.125 20.4013 15.2237 22.5 17.8125 22.5C20.4013 22.5 22.5 20.4013 22.5 17.8125C22.5 15.2237 20.4013 13.125 17.8125 13.125ZM9.375 17.8125C9.375 13.1526 13.1526 9.375 17.8125 9.375C22.4724 9.375 26.25 13.1526 26.25 17.8125C26.25 22.4724 22.4724 26.25 17.8125 26.25C13.1526 26.25 9.375 22.4724 9.375 17.8125Z" fill="#94C22B"/>
<path fill-rule="evenodd" clip-rule="evenodd" d="M42.1875 37.5C39.5987 37.5 37.5 39.5987 37.5 42.1875C37.5 44.7763 39.5987 46.875 42.1875 46.875C44.7763 46.875 46.875 44.7763 46.875 42.1875C46.875 39.5987 44.7763 37.5 42.1875 37.5ZM33.75 42.1875C33.75 37.5276 37.5276 33.75 42.1875 33.75C46.8474 33.75 50.625 37.5276 50.625 42.1875C50.625 46.8474 46.8474 50.625 42.1875 50.625C37.5276 50.625 33.75 46.8474 33.75 42.1875Z" fill="#94C22B"/>
</svg>
