<svg width="29" height="28" viewBox="0 0 29 28" fill="none" xmlns="http://www.w3.org/2000/svg">
<path d="M8.68945 17.6H9.96556L10.4447 17.2C8.92869 15.3602 7.97122 13.0398 7.97122 10.4C7.97129 4.63983 12.5987 0 18.3417 0C24.0061 0 28.6328 4.63983 28.6328 10.4C28.6328 16.1602 24.0061 20.8 18.2622 20.8C15.7094 20.8 13.3162 19.8399 11.4816 18.3202L11.0032 18.7203V20.0001L3.02594 28L0.632812 25.6L8.68945 17.6ZM18.2622 17.6C22.2509 17.6 25.4418 14.3999 25.4418 10.4C25.4418 6.39997 22.2509 3.20009 18.2622 3.20009C14.2737 3.20009 11.0827 6.39997 11.0827 10.4C11.0827 14.3999 14.2737 17.6 18.2622 17.6Z" fill="#94C22B"/>
</svg>
