<svg width="58" height="58" viewBox="0 0 58 58" fill="none" xmlns="http://www.w3.org/2000/svg">
<g clip-path="url(#clip0_361_379)">
<path d="M52.0719 9.39168L29.8688 0.173193C29.3125 -0.0576743 28.6873 -0.0577876 28.1312 0.173193L5.92812 9.39168C5.08248 9.74285 4.53125 10.5684 4.53125 11.4841V22.6904C4.53125 38.1208 13.8576 52.0008 28.1438 57.832C28.6926 58.0559 29.3073 58.0559 29.8562 57.832C44.1422 52.0009 53.4688 38.1209 53.4688 22.6904V11.4841C53.4688 10.5684 52.9176 9.74285 52.0719 9.39168ZM48.9375 22.6904C48.9375 35.8078 41.2344 47.8833 29 53.2734C17.0926 48.0273 9.0625 36.1633 9.0625 22.6904V12.9966L29 4.71872L48.9375 12.9966V22.6904ZM26.4958 30.3272L36.2339 20.5892C37.1186 19.7045 38.5531 19.7044 39.438 20.5892C40.3228 21.474 40.3227 22.9085 39.4378 23.7932L28.0978 35.1333C27.2129 36.0182 25.7784 36.0179 24.8938 35.1333L18.562 28.8015C17.6772 27.9167 17.6772 26.4822 18.562 25.5975C19.4469 24.7127 20.8814 24.7126 21.7661 25.5975L26.4958 30.3272Z" fill="#6C2F7C"/>
</g>
<defs>
<clipPath id="clip0_361_379">
<rect width="58" height="58" fill="white"/>
</clipPath>
</defs>
</svg>
