<svg width="58" height="58" viewBox="0 0 58 58" fill="none" xmlns="http://www.w3.org/2000/svg">
<path d="M26.7616 6.363C27.535 4.32334 30.4615 4.32334 31.2373 6.363L36.2398 20.2202C36.5902 21.1385 37.482 21.7499 38.4776 21.7499H50.7712C53.0429 21.7499 54.0337 24.5774 52.2478 25.9622L43.4995 33.8333C43.1076 34.1345 42.8212 34.5521 42.6814 35.0263C42.5416 35.5004 42.5556 36.0066 42.7213 36.4722L45.9161 50.0128C46.6943 52.1878 44.1761 54.0559 42.2718 52.7171L30.389 45.1771C29.9821 44.8911 29.4968 44.7376 28.9995 44.7376C28.5021 44.7376 28.0168 44.8911 27.6099 45.1771L15.7271 52.7171C13.8252 54.0559 11.3046 52.1854 12.0828 50.0128L15.2776 36.4722C15.4434 36.0066 15.4573 35.5004 15.3175 35.0263C15.1777 34.5521 14.8913 34.1345 14.4995 33.8333L5.75112 25.9622C3.96279 24.5774 4.95845 21.7499 7.22529 21.7499H19.5189C20.0029 21.7515 20.476 21.6061 20.8756 21.333C21.2752 21.0598 21.5825 20.6718 21.7567 20.2202L26.7592 6.363H26.7616Z" stroke="#6C2F7C" stroke-width="3" stroke-linecap="round" stroke-linejoin="round"/>
</svg>
