<svg width="22" height="18" viewBox="0 0 22 18" fill="none" xmlns="http://www.w3.org/2000/svg">
<path d="M2.45455 0C1.10659 0 0 1.10659 0 2.45455V13.0909C0 15.7889 2.21114 18 4.90909 18C7.60705 18 9.81818 15.7889 9.81818 13.0909V12.2727C9.81818 11.9843 9.75477 11.7102 9.66477 11.4545H11.608C11.518 11.7102 11.4545 11.9843 11.4545 12.2727V13.0909C11.4545 15.7889 13.6657 18 16.3636 18C19.0616 18 21.2727 15.7889 21.2727 13.0909V2.45455C21.2727 1.10659 20.1661 0 18.8182 0C17.4702 0 16.3636 1.10659 16.3636 2.45455V3.27273H18V2.45455C18 2.00045 18.3641 1.63636 18.8182 1.63636C19.2723 1.63636 19.6364 2.00045 19.6364 2.45455V9.97159C19.3807 9.88159 19.1066 9.81818 18.8182 9.81818H2.45455C2.16614 9.81818 1.89205 9.88159 1.63636 9.97159V2.45455C1.63636 2.00045 2.00045 1.63636 2.45455 1.63636C2.90864 1.63636 3.27273 2.00045 3.27273 2.45455V3.27273H4.90909V2.45455C4.90909 1.10659 3.8025 0 2.45455 0ZM2.45455 11.4545H7.36364C7.81773 11.4545 8.18182 11.8186 8.18182 12.2727V13.0909C8.18182 14.893 6.71114 16.3636 4.90909 16.3636C3.10705 16.3636 1.63636 14.893 1.63636 13.0909V12.2727C1.63636 11.8186 2.00045 11.4545 2.45455 11.4545ZM13.9091 11.4545H18.8182C19.2723 11.4545 19.6364 11.8186 19.6364 12.2727V13.0909C19.6364 14.893 18.1657 16.3636 16.3636 16.3636C14.5616 16.3636 13.0909 14.893 13.0909 13.0909V12.2727C13.0909 11.8186 13.455 11.4545 13.9091 11.4545Z" fill="white"/>
</svg>
